<?xml version="1.0" encoding="UTF-8" standalone="no"?><svg xmlns="http://www.w3.org/2000/svg" xmlns:xlink="http://www.w3.org/1999/xlink" contentScriptType="application/ecmascript" contentStyleType="text/css" height="391px" preserveAspectRatio="none" style="width:4977px;height:391px;" version="1.1" viewBox="0 0 4977 391" width="4977px" zoomAndPan="magnify"><defs><filter height="300%" id="f11ca77c9ls6ho" width="300%" x="-1" y="-1"><feGaussianBlur result="blurOut" stdDeviation="2.0"/><feColorMatrix in="blurOut" result="blurOut2" type="matrix" values="0 0 0 0 0 0 0 0 0 0 0 0 0 0 0 0 0 0 .4 0"/><feOffset dx="4.0" dy="4.0" in="blurOut2" result="blurOut3"/><feBlend in="SourceGraphic" in2="blurOut3" mode="normal"/></filter></defs><g><!--class BaseKeyedPooledObjectFactory--><rect fill="#FEFECE" filter="url(#f11ca77c9ls6ho)" height="48" id="BaseKeyedPooledObjectFactory" style="stroke: #A80036; stroke-width: 1.5;" width="210" x="473" y="116"/><ellipse cx="488" cy="132" fill="#A9DCDF" rx="11" ry="11" style="stroke: #A80036; stroke-width: 1.0;"/><path d="M489.0781,133 L486.2656,133 L485.4531,134.6094 Q485.4063,134.7656 485.4063,134.9063 Q485.4063,135.0938 485.4531,135.2031 Q485.5,135.3125 485.7188,135.3125 L486.2656,135.3125 L486.2656,137 L483,137 L483,135.3125 L483.5625,135.3125 Q483.7813,135.3125 483.8984,135.25 Q484.0156,135.1875 484.0625,135 L487.1563,125.3125 L488.5313,125.3125 L491.5625,134.8906 Q491.6563,135.125 491.7969,135.2188 Q491.9375,135.3125 492.125,135.3125 L492.6875,135.3125 L492.6875,137 L489.0313,137 L489.0313,135.3125 L489.6406,135.3125 Q489.8125,135.3125 489.8203,135.2969 Q489.8281,135.2813 489.8281,135.2188 Q489.8281,135.0469 489.7969,134.9531 L489.0781,133 Z M483.8594,136 L483.8594,136 Z M484.5313,136 L484.5313,136 Z M489.25,136 L489.25,136 Z M490.375,136 L490.375,136 Z M487.5781,127.4063 L487.6563,127.4063 L486.7969,131.3125 L488.75,131.3125 L487.5781,127.4063 Z "/><text fill="#000000" font-family="sans-serif" font-size="12" font-style="italic" lengthAdjust="spacingAndGlyphs" textLength="178" x="502" y="137.5576">BaseKeyedPooledObjectFactory</text><line style="stroke: #A80036; stroke-width: 1.5;" x1="474" x2="682" y1="148" y2="148"/><line style="stroke: #A80036; stroke-width: 1.5;" x1="474" x2="682" y1="156" y2="156"/><!--class BaseObject--><rect fill="#FEFECE" filter="url(#f11ca77c9ls6ho)" height="48" id="BaseObject" style="stroke: #A80036; stroke-width: 1.5;" width="96" x="826" y="8"/><ellipse cx="841" cy="24" fill="#A9DCDF" rx="11" ry="11" style="stroke: #A80036; stroke-width: 1.0;"/><path d="M842.0781,25 L839.2656,25 L838.4531,26.6094 Q838.4063,26.7656 838.4063,26.9063 Q838.4063,27.0938 838.4531,27.2031 Q838.5,27.3125 838.7188,27.3125 L839.2656,27.3125 L839.2656,29 L836,29 L836,27.3125 L836.5625,27.3125 Q836.7813,27.3125 836.8984,27.25 Q837.0156,27.1875 837.0625,27 L840.1563,17.3125 L841.5313,17.3125 L844.5625,26.8906 Q844.6563,27.125 844.7969,27.2188 Q844.9375,27.3125 845.125,27.3125 L845.6875,27.3125 L845.6875,29 L842.0313,29 L842.0313,27.3125 L842.6406,27.3125 Q842.8125,27.3125 842.8203,27.2969 Q842.8281,27.2813 842.8281,27.2188 Q842.8281,27.0469 842.7969,26.9531 L842.0781,25 Z M836.8594,28 L836.8594,28 Z M837.5313,28 L837.5313,28 Z M842.25,28 L842.25,28 Z M843.375,28 L843.375,28 Z M840.5781,19.4063 L840.6563,19.4063 L839.7969,23.3125 L841.75,23.3125 L840.5781,19.4063 Z "/><text fill="#000000" font-family="sans-serif" font-size="12" font-style="italic" lengthAdjust="spacingAndGlyphs" textLength="64" x="855" y="29.5576">BaseObject</text><line style="stroke: #A80036; stroke-width: 1.5;" x1="827" x2="921" y1="40" y2="40"/><line style="stroke: #A80036; stroke-width: 1.5;" x1="827" x2="921" y1="48" y2="48"/><!--class KeyedPooledObjectFactory--><rect fill="#FEFECE" filter="url(#f11ca77c9ls6ho)" height="48" id="KeyedPooledObjectFactory" style="stroke: #A80036; stroke-width: 1.5;" width="205" x="475.5" y="8"/><ellipse cx="490.5" cy="24" fill="#B4A7E5" rx="11" ry="11" style="stroke: #A80036; stroke-width: 1.0;"/><path d="M487.375,20 L487.375,18.3125 L493.3125,18.3125 L493.3125,20 L491.4375,20 Q491.2813,20 491.2344,20.0313 Q491.1875,20.0625 491.1875,20.1094 L491.1875,28.2031 Q491.1875,28.25 491.2344,28.2813 Q491.2813,28.3125 491.4375,28.3125 L493.3125,28.3125 L493.3125,30 L487.375,30 L487.375,28.3125 L489.25,28.3125 Q489.4531,28.3125 489.4766,28.2969 Q489.5,28.2813 489.5,28.2031 L489.5,20.1094 Q489.5,20.0313 489.4766,20.0156 Q489.4531,20 489.25,20 L487.375,20 Z "/><text fill="#000000" font-family="sans-serif" font-size="12" font-style="italic" lengthAdjust="spacingAndGlyphs" textLength="150" x="504.5" y="29.5576">KeyedPooledObjectFactory</text><rect fill="#FFFFFF" height="18.3887" style="stroke: #000000; stroke-width: 1.0; stroke-dasharray: 2.0,2.0;" width="21" x="662.5" y="5"/><text fill="#000000" font-family="sans-serif" font-size="12" font-style="italic" lengthAdjust="spacingAndGlyphs" textLength="19" x="663.5" y="19.752">K,V</text><line style="stroke: #A80036; stroke-width: 1.5;" x1="476.5" x2="679.5" y1="40" y2="40"/><line style="stroke: #A80036; stroke-width: 1.5;" x1="476.5" x2="679.5" y1="48" y2="48"/><!--class BaseObjectPool--><rect fill="#FEFECE" filter="url(#f11ca77c9ls6ho)" height="48" id="BaseObjectPool" style="stroke: #A80036; stroke-width: 1.5;" width="121" x="718.5" y="116"/><ellipse cx="733.5" cy="132" fill="#A9DCDF" rx="11" ry="11" style="stroke: #A80036; stroke-width: 1.0;"/><path d="M734.5781,133 L731.7656,133 L730.9531,134.6094 Q730.9063,134.7656 730.9063,134.9063 Q730.9063,135.0938 730.9531,135.2031 Q731,135.3125 731.2188,135.3125 L731.7656,135.3125 L731.7656,137 L728.5,137 L728.5,135.3125 L729.0625,135.3125 Q729.2813,135.3125 729.3984,135.25 Q729.5156,135.1875 729.5625,135 L732.6563,125.3125 L734.0313,125.3125 L737.0625,134.8906 Q737.1563,135.125 737.2969,135.2188 Q737.4375,135.3125 737.625,135.3125 L738.1875,135.3125 L738.1875,137 L734.5313,137 L734.5313,135.3125 L735.1406,135.3125 Q735.3125,135.3125 735.3203,135.2969 Q735.3281,135.2813 735.3281,135.2188 Q735.3281,135.0469 735.2969,134.9531 L734.5781,133 Z M729.3594,136 L729.3594,136 Z M730.0313,136 L730.0313,136 Z M734.75,136 L734.75,136 Z M735.875,136 L735.875,136 Z M733.0781,127.4063 L733.1563,127.4063 L732.2969,131.3125 L734.25,131.3125 L733.0781,127.4063 Z "/><text fill="#000000" font-family="sans-serif" font-size="12" font-style="italic" lengthAdjust="spacingAndGlyphs" textLength="89" x="747.5" y="137.5576">BaseObjectPool</text><line style="stroke: #A80036; stroke-width: 1.5;" x1="719.5" x2="838.5" y1="148" y2="148"/><line style="stroke: #A80036; stroke-width: 1.5;" x1="719.5" x2="838.5" y1="156" y2="156"/><!--class ObjectPool--><rect fill="#FEFECE" filter="url(#f11ca77c9ls6ho)" height="48" id="ObjectPool" style="stroke: #A80036; stroke-width: 1.5;" width="104" x="957" y="8"/><ellipse cx="972" cy="24" fill="#B4A7E5" rx="11" ry="11" style="stroke: #A80036; stroke-width: 1.0;"/><path d="M968.875,20 L968.875,18.3125 L974.8125,18.3125 L974.8125,20 L972.9375,20 Q972.7813,20 972.7344,20.0313 Q972.6875,20.0625 972.6875,20.1094 L972.6875,28.2031 Q972.6875,28.25 972.7344,28.2813 Q972.7813,28.3125 972.9375,28.3125 L974.8125,28.3125 L974.8125,30 L968.875,30 L968.875,28.3125 L970.75,28.3125 Q970.9531,28.3125 970.9766,28.2969 Q971,28.2813 971,28.2031 L971,20.1094 Q971,20.0313 970.9766,20.0156 Q970.9531,20 970.75,20 L968.875,20 Z "/><text fill="#000000" font-family="sans-serif" font-size="12" font-style="italic" lengthAdjust="spacingAndGlyphs" textLength="61" x="986" y="29.5576">ObjectPool</text><rect fill="#FFFFFF" height="18.3887" style="stroke: #000000; stroke-width: 1.0; stroke-dasharray: 2.0,2.0;" width="9" x="1055" y="5"/><text fill="#000000" font-family="sans-serif" font-size="12" font-style="italic" lengthAdjust="spacingAndGlyphs" textLength="7" x="1056" y="19.752">T</text><line style="stroke: #A80036; stroke-width: 1.5;" x1="958" x2="1060" y1="40" y2="40"/><line style="stroke: #A80036; stroke-width: 1.5;" x1="958" x2="1060" y1="48" y2="48"/><!--class BasePooledObjectFactory--><rect fill="#FEFECE" filter="url(#f11ca77c9ls6ho)" height="48" id="BasePooledObjectFactory" style="stroke: #A80036; stroke-width: 1.5;" width="175" x="2165.5" y="116"/><ellipse cx="2180.5" cy="132" fill="#A9DCDF" rx="11" ry="11" style="stroke: #A80036; stroke-width: 1.0;"/><path d="M2181.5781,133 L2178.7656,133 L2177.9531,134.6094 Q2177.9063,134.7656 2177.9063,134.9063 Q2177.9063,135.0938 2177.9531,135.2031 Q2178,135.3125 2178.2188,135.3125 L2178.7656,135.3125 L2178.7656,137 L2175.5,137 L2175.5,135.3125 L2176.0625,135.3125 Q2176.2813,135.3125 2176.3984,135.25 Q2176.5156,135.1875 2176.5625,135 L2179.6563,125.3125 L2181.0313,125.3125 L2184.0625,134.8906 Q2184.1563,135.125 2184.2969,135.2188 Q2184.4375,135.3125 2184.625,135.3125 L2185.1875,135.3125 L2185.1875,137 L2181.5313,137 L2181.5313,135.3125 L2182.1406,135.3125 Q2182.3125,135.3125 2182.3203,135.2969 Q2182.3281,135.2813 2182.3281,135.2188 Q2182.3281,135.0469 2182.2969,134.9531 L2181.5781,133 Z M2176.3594,136 L2176.3594,136 Z M2177.0313,136 L2177.0313,136 Z M2181.75,136 L2181.75,136 Z M2182.875,136 L2182.875,136 Z M2180.0781,127.4063 L2180.1563,127.4063 L2179.2969,131.3125 L2181.25,131.3125 L2180.0781,127.4063 Z "/><text fill="#000000" font-family="sans-serif" font-size="12" font-style="italic" lengthAdjust="spacingAndGlyphs" textLength="143" x="2194.5" y="137.5576">BasePooledObjectFactory</text><line style="stroke: #A80036; stroke-width: 1.5;" x1="2166.5" x2="2339.5" y1="148" y2="148"/><line style="stroke: #A80036; stroke-width: 1.5;" x1="2166.5" x2="2339.5" y1="156" y2="156"/><!--class PooledObjectFactory--><rect fill="#FEFECE" filter="url(#f11ca77c9ls6ho)" height="48" id="PooledObjectFactory" style="stroke: #A80036; stroke-width: 1.5;" width="158" x="2174" y="8"/><ellipse cx="2189" cy="24" fill="#B4A7E5" rx="11" ry="11" style="stroke: #A80036; stroke-width: 1.0;"/><path d="M2185.875,20 L2185.875,18.3125 L2191.8125,18.3125 L2191.8125,20 L2189.9375,20 Q2189.7813,20 2189.7344,20.0313 Q2189.6875,20.0625 2189.6875,20.1094 L2189.6875,28.2031 Q2189.6875,28.25 2189.7344,28.2813 Q2189.7813,28.3125 2189.9375,28.3125 L2191.8125,28.3125 L2191.8125,30 L2185.875,30 L2185.875,28.3125 L2187.75,28.3125 Q2187.9531,28.3125 2187.9766,28.2969 Q2188,28.2813 2188,28.2031 L2188,20.1094 Q2188,20.0313 2187.9766,20.0156 Q2187.9531,20 2187.75,20 L2185.875,20 Z "/><text fill="#000000" font-family="sans-serif" font-size="12" font-style="italic" lengthAdjust="spacingAndGlyphs" textLength="115" x="2203" y="29.5576">PooledObjectFactory</text><rect fill="#FFFFFF" height="18.3887" style="stroke: #000000; stroke-width: 1.0; stroke-dasharray: 2.0,2.0;" width="9" x="2326" y="5"/><text fill="#000000" font-family="sans-serif" font-size="12" font-style="italic" lengthAdjust="spacingAndGlyphs" textLength="7" x="2327" y="19.752">T</text><line style="stroke: #A80036; stroke-width: 1.5;" x1="2175" x2="2331" y1="40" y2="40"/><line style="stroke: #A80036; stroke-width: 1.5;" x1="2175" x2="2331" y1="48" y2="48"/><!--class KeyedObjectPool--><rect fill="#FEFECE" filter="url(#f11ca77c9ls6ho)" height="48" id="KeyedObjectPool" style="stroke: #A80036; stroke-width: 1.5;" width="151" x="1715.5" y="116"/><ellipse cx="1730.5" cy="132" fill="#B4A7E5" rx="11" ry="11" style="stroke: #A80036; stroke-width: 1.0;"/><path d="M1727.375,128 L1727.375,126.3125 L1733.3125,126.3125 L1733.3125,128 L1731.4375,128 Q1731.2813,128 1731.2344,128.0313 Q1731.1875,128.0625 1731.1875,128.1094 L1731.1875,136.2031 Q1731.1875,136.25 1731.2344,136.2813 Q1731.2813,136.3125 1731.4375,136.3125 L1733.3125,136.3125 L1733.3125,138 L1727.375,138 L1727.375,136.3125 L1729.25,136.3125 Q1729.4531,136.3125 1729.4766,136.2969 Q1729.5,136.2813 1729.5,136.2031 L1729.5,128.1094 Q1729.5,128.0313 1729.4766,128.0156 Q1729.4531,128 1729.25,128 L1727.375,128 Z "/><text fill="#000000" font-family="sans-serif" font-size="12" font-style="italic" lengthAdjust="spacingAndGlyphs" textLength="96" x="1744.5" y="137.5576">KeyedObjectPool</text><rect fill="#FFFFFF" height="18.3887" style="stroke: #000000; stroke-width: 1.0; stroke-dasharray: 2.0,2.0;" width="21" x="1848.5" y="113"/><text fill="#000000" font-family="sans-serif" font-size="12" font-style="italic" lengthAdjust="spacingAndGlyphs" textLength="19" x="1849.5" y="127.752">K,V</text><line style="stroke: #A80036; stroke-width: 1.5;" x1="1716.5" x2="1865.5" y1="148" y2="148"/><line style="stroke: #A80036; stroke-width: 1.5;" x1="1716.5" x2="1865.5" y1="156" y2="156"/><!--class PooledObject--><rect fill="#FEFECE" filter="url(#f11ca77c9ls6ho)" height="48" id="PooledObject" style="stroke: #A80036; stroke-width: 1.5;" width="107" x="2710.5" y="116"/><ellipse cx="2725.5" cy="132" fill="#B4A7E5" rx="11" ry="11" style="stroke: #A80036; stroke-width: 1.0;"/><path d="M2722.375,128 L2722.375,126.3125 L2728.3125,126.3125 L2728.3125,128 L2726.4375,128 Q2726.2813,128 2726.2344,128.0313 Q2726.1875,128.0625 2726.1875,128.1094 L2726.1875,136.2031 Q2726.1875,136.25 2726.2344,136.2813 Q2726.2813,136.3125 2726.4375,136.3125 L2728.3125,136.3125 L2728.3125,138 L2722.375,138 L2722.375,136.3125 L2724.25,136.3125 Q2724.4531,136.3125 2724.4766,136.2969 Q2724.5,136.2813 2724.5,136.2031 L2724.5,128.1094 Q2724.5,128.0313 2724.4766,128.0156 Q2724.4531,128 2724.25,128 L2722.375,128 Z "/><text fill="#000000" font-family="sans-serif" font-size="12" font-style="italic" lengthAdjust="spacingAndGlyphs" textLength="75" x="2739.5" y="137.5576">PooledObject</text><line style="stroke: #A80036; stroke-width: 1.5;" x1="2711.5" x2="2816.5" y1="148" y2="148"/><line style="stroke: #A80036; stroke-width: 1.5;" x1="2711.5" x2="2816.5" y1="156" y2="156"/><!--class Comparable--><rect fill="#FEFECE" filter="url(#f11ca77c9ls6ho)" height="48" id="Comparable" style="stroke: #A80036; stroke-width: 1.5;" width="102" x="2713" y="8"/><ellipse cx="2728" cy="24" fill="#B4A7E5" rx="11" ry="11" style="stroke: #A80036; stroke-width: 1.0;"/><path d="M2724.875,20 L2724.875,18.3125 L2730.8125,18.3125 L2730.8125,20 L2728.9375,20 Q2728.7813,20 2728.7344,20.0313 Q2728.6875,20.0625 2728.6875,20.1094 L2728.6875,28.2031 Q2728.6875,28.25 2728.7344,28.2813 Q2728.7813,28.3125 2728.9375,28.3125 L2730.8125,28.3125 L2730.8125,30 L2724.875,30 L2724.875,28.3125 L2726.75,28.3125 Q2726.9531,28.3125 2726.9766,28.2969 Q2727,28.2813 2727,28.2031 L2727,20.1094 Q2727,20.0313 2726.9766,20.0156 Q2726.9531,20 2726.75,20 L2724.875,20 Z "/><text fill="#000000" font-family="sans-serif" font-size="12" font-style="italic" lengthAdjust="spacingAndGlyphs" textLength="70" x="2742" y="29.5576">Comparable</text><line style="stroke: #A80036; stroke-width: 1.5;" x1="2714" x2="2814" y1="40" y2="40"/><line style="stroke: #A80036; stroke-width: 1.5;" x1="2714" x2="2814" y1="48" y2="48"/><!--class PooledObjectState--><rect fill="#FEFECE" filter="url(#f11ca77c9ls6ho)" height="48" id="PooledObjectState" style="stroke: #A80036; stroke-width: 1.5;" width="134" x="6" y="8"/><ellipse cx="21" cy="24" fill="#EB937F" rx="11" ry="11" style="stroke: #A80036; stroke-width: 1.0;"/><path d="M17.0625,20 L17.0625,18.3125 L24.7656,18.3125 L25.8594,21 L24.8906,21 Q24.2344,20.4531 23.5938,20.2266 Q22.9531,20 22.1875,20 L20.0313,20 Q19.8125,20 19.7109,20 Q19.6094,20 19.6875,20 L19.6875,22.3125 L21.1563,22.3125 Q21.6094,22.3125 21.8047,22.0469 Q22,21.7813 22,21.125 L22,20.3125 L23.6875,20.3125 L23.6875,26 L22,26 L22,25.3594 Q22,24.6406 21.7969,24.3203 Q21.5938,24 21.1563,24 L19.6875,24 L19.6875,28.1719 Q19.6875,28.2344 19.75,28.2734 Q19.8125,28.3125 20,28.3125 L21.9219,28.3125 Q23.0469,28.3125 23.6719,27.8828 Q24.2969,27.4531 24.7813,26.3125 L25.7813,26.3125 L24.8281,30 L17,30 L17,28.3125 L17.7344,28.3125 Q17.9531,28.3125 17.9766,28.2969 Q18,28.2813 18,28.2031 L18,20.1094 Q18,20.0313 17.9766,20.0156 Q17.9531,20 17.7344,20 L17.0625,20 Z "/><text fill="#000000" font-family="sans-serif" font-size="12" lengthAdjust="spacingAndGlyphs" textLength="102" x="35" y="29.5576">PooledObjectState</text><line style="stroke: #A80036; stroke-width: 1.5;" x1="7" x2="139" y1="40" y2="40"/><line style="stroke: #A80036; stroke-width: 1.5;" x1="7" x2="139" y1="48" y2="48"/><!--class TrackedUse--><rect fill="#FEFECE" filter="url(#f11ca77c9ls6ho)" height="48" id="TrackedUse" style="stroke: #A80036; stroke-width: 1.5;" width="99" x="175.5" y="8"/><ellipse cx="190.5" cy="24" fill="#B4A7E5" rx="11" ry="11" style="stroke: #A80036; stroke-width: 1.0;"/><path d="M187.375,20 L187.375,18.3125 L193.3125,18.3125 L193.3125,20 L191.4375,20 Q191.2813,20 191.2344,20.0313 Q191.1875,20.0625 191.1875,20.1094 L191.1875,28.2031 Q191.1875,28.25 191.2344,28.2813 Q191.2813,28.3125 191.4375,28.3125 L193.3125,28.3125 L193.3125,30 L187.375,30 L187.375,28.3125 L189.25,28.3125 Q189.4531,28.3125 189.4766,28.2969 Q189.5,28.2813 189.5,28.2031 L189.5,20.1094 Q189.5,20.0313 189.4766,20.0156 Q189.4531,20 189.25,20 L187.375,20 Z "/><text fill="#000000" font-family="sans-serif" font-size="12" font-style="italic" lengthAdjust="spacingAndGlyphs" textLength="67" x="204.5" y="29.5576">TrackedUse</text><line style="stroke: #A80036; stroke-width: 1.5;" x1="176.5" x2="273.5" y1="40" y2="40"/><line style="stroke: #A80036; stroke-width: 1.5;" x1="176.5" x2="273.5" y1="48" y2="48"/><!--class UsageTracking--><rect fill="#FEFECE" filter="url(#f11ca77c9ls6ho)" height="48" id="UsageTracking" style="stroke: #A80036; stroke-width: 1.5;" width="127" x="1125.5" y="116"/><ellipse cx="1140.5" cy="132" fill="#B4A7E5" rx="11" ry="11" style="stroke: #A80036; stroke-width: 1.0;"/><path d="M1137.375,128 L1137.375,126.3125 L1143.3125,126.3125 L1143.3125,128 L1141.4375,128 Q1141.2813,128 1141.2344,128.0313 Q1141.1875,128.0625 1141.1875,128.1094 L1141.1875,136.2031 Q1141.1875,136.25 1141.2344,136.2813 Q1141.2813,136.3125 1141.4375,136.3125 L1143.3125,136.3125 L1143.3125,138 L1137.375,138 L1137.375,136.3125 L1139.25,136.3125 Q1139.4531,136.3125 1139.4766,136.2969 Q1139.5,136.2813 1139.5,136.2031 L1139.5,128.1094 Q1139.5,128.0313 1139.4766,128.0156 Q1139.4531,128 1139.25,128 L1137.375,128 Z "/><text fill="#000000" font-family="sans-serif" font-size="12" font-style="italic" lengthAdjust="spacingAndGlyphs" textLength="84" x="1154.5" y="137.5576">UsageTracking</text><rect fill="#FFFFFF" height="18.3887" style="stroke: #000000; stroke-width: 1.0; stroke-dasharray: 2.0,2.0;" width="9" x="1246.5" y="113"/><text fill="#000000" font-family="sans-serif" font-size="12" font-style="italic" lengthAdjust="spacingAndGlyphs" textLength="7" x="1247.5" y="127.752">T</text><line style="stroke: #A80036; stroke-width: 1.5;" x1="1126.5" x2="1251.5" y1="148" y2="148"/><line style="stroke: #A80036; stroke-width: 1.5;" x1="1126.5" x2="1251.5" y1="156" y2="156"/><!--class BaseProxyHandler--><rect fill="#FEFECE" filter="url(#f11ca77c9ls6ho)" height="48" id="BaseProxyHandler" style="stroke: #A80036; stroke-width: 1.5;" width="134" x="3017" y="8"/><ellipse cx="3032" cy="24" fill="#ADD1B2" rx="11" ry="11" style="stroke: #A80036; stroke-width: 1.0;"/><path d="M3031.6875,30 Q3029.75,30 3028.625,28.5703 Q3027.5,27.1406 3027.5,24.1875 Q3027.5,21.6875 3028.6875,20 Q3029.875,18.3125 3031.9375,18.3125 Q3032.3906,18.3125 3032.8281,18.3125 Q3033.2656,18.3125 3033.5781,18.3125 Q3033.8281,18.3125 3033.9922,18.3125 Q3034.1563,18.3125 3034.5625,18.3125 L3035.2656,22 L3034.2031,22 Q3033.7656,20.9063 3033.1953,20.4531 Q3032.625,20 3031.7031,20 Q3030.5469,20 3029.8672,21.1797 Q3029.1875,22.3594 3029.1875,24.1875 Q3029.1875,26.2031 3029.7109,27.2578 Q3030.2344,28.3125 3031.6406,28.3125 Q3032.5625,28.3125 3033.2109,27.7422 Q3033.8594,27.1719 3034.2031,25.7813 L3035.2344,26.2969 Q3034.8438,28.0469 3033.9063,29.0234 Q3032.9688,30 3031.6875,30 Z "/><text fill="#000000" font-family="sans-serif" font-size="12" lengthAdjust="spacingAndGlyphs" textLength="102" x="3046" y="29.5576">BaseProxyHandler</text><line style="stroke: #A80036; stroke-width: 1.5;" x1="3018" x2="3150" y1="40" y2="40"/><line style="stroke: #A80036; stroke-width: 1.5;" x1="3018" x2="3150" y1="48" y2="48"/><!--class CglibProxyHandler--><rect fill="#FEFECE" filter="url(#f11ca77c9ls6ho)" height="48" id="CglibProxyHandler" style="stroke: #A80036; stroke-width: 1.5;" width="134" x="2935" y="116"/><ellipse cx="2950" cy="132" fill="#ADD1B2" rx="11" ry="11" style="stroke: #A80036; stroke-width: 1.0;"/><path d="M2949.6875,138 Q2947.75,138 2946.625,136.5703 Q2945.5,135.1406 2945.5,132.1875 Q2945.5,129.6875 2946.6875,128 Q2947.875,126.3125 2949.9375,126.3125 Q2950.3906,126.3125 2950.8281,126.3125 Q2951.2656,126.3125 2951.5781,126.3125 Q2951.8281,126.3125 2951.9922,126.3125 Q2952.1563,126.3125 2952.5625,126.3125 L2953.2656,130 L2952.2031,130 Q2951.7656,128.9063 2951.1953,128.4531 Q2950.625,128 2949.7031,128 Q2948.5469,128 2947.8672,129.1797 Q2947.1875,130.3594 2947.1875,132.1875 Q2947.1875,134.2031 2947.7109,135.2578 Q2948.2344,136.3125 2949.6406,136.3125 Q2950.5625,136.3125 2951.2109,135.7422 Q2951.8594,135.1719 2952.2031,133.7813 L2953.2344,134.2969 Q2952.8438,136.0469 2951.9063,137.0234 Q2950.9688,138 2949.6875,138 Z "/><text fill="#000000" font-family="sans-serif" font-size="12" lengthAdjust="spacingAndGlyphs" textLength="102" x="2964" y="137.5576">CglibProxyHandler</text><line style="stroke: #A80036; stroke-width: 1.5;" x1="2936" x2="3068" y1="148" y2="148"/><line style="stroke: #A80036; stroke-width: 1.5;" x1="2936" x2="3068" y1="156" y2="156"/><!--class MethodInterceptor--><rect fill="#FEFECE" filter="url(#f11ca77c9ls6ho)" height="48" id="MethodInterceptor" style="stroke: #A80036; stroke-width: 1.5;" width="131" x="2850.5" y="8"/><ellipse cx="2865.5" cy="24" fill="#B4A7E5" rx="11" ry="11" style="stroke: #A80036; stroke-width: 1.0;"/><path d="M2862.375,20 L2862.375,18.3125 L2868.3125,18.3125 L2868.3125,20 L2866.4375,20 Q2866.2813,20 2866.2344,20.0313 Q2866.1875,20.0625 2866.1875,20.1094 L2866.1875,28.2031 Q2866.1875,28.25 2866.2344,28.2813 Q2866.2813,28.3125 2866.4375,28.3125 L2868.3125,28.3125 L2868.3125,30 L2862.375,30 L2862.375,28.3125 L2864.25,28.3125 Q2864.4531,28.3125 2864.4766,28.2969 Q2864.5,28.2813 2864.5,28.2031 L2864.5,20.1094 Q2864.5,20.0313 2864.4766,20.0156 Q2864.4531,20 2864.25,20 L2862.375,20 Z "/><text fill="#000000" font-family="sans-serif" font-size="12" font-style="italic" lengthAdjust="spacingAndGlyphs" textLength="99" x="2879.5" y="29.5576">MethodInterceptor</text><line style="stroke: #A80036; stroke-width: 1.5;" x1="2851.5" x2="2980.5" y1="40" y2="40"/><line style="stroke: #A80036; stroke-width: 1.5;" x1="2851.5" x2="2980.5" y1="48" y2="48"/><!--class CglibProxySource--><rect fill="#FEFECE" filter="url(#f11ca77c9ls6ho)" height="48" id="CglibProxySource" style="stroke: #A80036; stroke-width: 1.5;" width="129" x="3325.5" y="116"/><ellipse cx="3340.5" cy="132" fill="#ADD1B2" rx="11" ry="11" style="stroke: #A80036; stroke-width: 1.0;"/><path d="M3340.1875,138 Q3338.25,138 3337.125,136.5703 Q3336,135.1406 3336,132.1875 Q3336,129.6875 3337.1875,128 Q3338.375,126.3125 3340.4375,126.3125 Q3340.8906,126.3125 3341.3281,126.3125 Q3341.7656,126.3125 3342.0781,126.3125 Q3342.3281,126.3125 3342.4922,126.3125 Q3342.6563,126.3125 3343.0625,126.3125 L3343.7656,130 L3342.7031,130 Q3342.2656,128.9063 3341.6953,128.4531 Q3341.125,128 3340.2031,128 Q3339.0469,128 3338.3672,129.1797 Q3337.6875,130.3594 3337.6875,132.1875 Q3337.6875,134.2031 3338.2109,135.2578 Q3338.7344,136.3125 3340.1406,136.3125 Q3341.0625,136.3125 3341.7109,135.7422 Q3342.3594,135.1719 3342.7031,133.7813 L3343.7344,134.2969 Q3343.3438,136.0469 3342.4063,137.0234 Q3341.4688,138 3340.1875,138 Z "/><text fill="#000000" font-family="sans-serif" font-size="12" lengthAdjust="spacingAndGlyphs" textLength="97" x="3354.5" y="137.5576">CglibProxySource</text><line style="stroke: #A80036; stroke-width: 1.5;" x1="3326.5" x2="3453.5" y1="148" y2="148"/><line style="stroke: #A80036; stroke-width: 1.5;" x1="3326.5" x2="3453.5" y1="156" y2="156"/><!--class ProxySource--><rect fill="#FEFECE" filter="url(#f11ca77c9ls6ho)" height="48" id="ProxySource" style="stroke: #A80036; stroke-width: 1.5;" width="113" x="3354.5" y="8"/><ellipse cx="3369.5" cy="24" fill="#B4A7E5" rx="11" ry="11" style="stroke: #A80036; stroke-width: 1.0;"/><path d="M3366.375,20 L3366.375,18.3125 L3372.3125,18.3125 L3372.3125,20 L3370.4375,20 Q3370.2813,20 3370.2344,20.0313 Q3370.1875,20.0625 3370.1875,20.1094 L3370.1875,28.2031 Q3370.1875,28.25 3370.2344,28.2813 Q3370.2813,28.3125 3370.4375,28.3125 L3372.3125,28.3125 L3372.3125,30 L3366.375,30 L3366.375,28.3125 L3368.25,28.3125 Q3368.4531,28.3125 3368.4766,28.2969 Q3368.5,28.2813 3368.5,28.2031 L3368.5,20.1094 Q3368.5,20.0313 3368.4766,20.0156 Q3368.4531,20 3368.25,20 L3366.375,20 Z "/><text fill="#000000" font-family="sans-serif" font-size="12" font-style="italic" lengthAdjust="spacingAndGlyphs" textLength="70" x="3383.5" y="29.5576">ProxySource</text><rect fill="#FFFFFF" height="18.3887" style="stroke: #000000; stroke-width: 1.0; stroke-dasharray: 2.0,2.0;" width="9" x="3461.5" y="5"/><text fill="#000000" font-family="sans-serif" font-size="12" font-style="italic" lengthAdjust="spacingAndGlyphs" textLength="7" x="3462.5" y="19.752">T</text><line style="stroke: #A80036; stroke-width: 1.5;" x1="3355.5" x2="3466.5" y1="40" y2="40"/><line style="stroke: #A80036; stroke-width: 1.5;" x1="3355.5" x2="3466.5" y1="48" y2="48"/><!--class JdkProxyHandler--><rect fill="#FEFECE" filter="url(#f11ca77c9ls6ho)" height="48" id="JdkProxyHandler" style="stroke: #A80036; stroke-width: 1.5;" width="124" x="3145" y="116"/><ellipse cx="3160" cy="132" fill="#ADD1B2" rx="11" ry="11" style="stroke: #A80036; stroke-width: 1.0;"/><path d="M3159.6875,138 Q3157.75,138 3156.625,136.5703 Q3155.5,135.1406 3155.5,132.1875 Q3155.5,129.6875 3156.6875,128 Q3157.875,126.3125 3159.9375,126.3125 Q3160.3906,126.3125 3160.8281,126.3125 Q3161.2656,126.3125 3161.5781,126.3125 Q3161.8281,126.3125 3161.9922,126.3125 Q3162.1563,126.3125 3162.5625,126.3125 L3163.2656,130 L3162.2031,130 Q3161.7656,128.9063 3161.1953,128.4531 Q3160.625,128 3159.7031,128 Q3158.5469,128 3157.8672,129.1797 Q3157.1875,130.3594 3157.1875,132.1875 Q3157.1875,134.2031 3157.7109,135.2578 Q3158.2344,136.3125 3159.6406,136.3125 Q3160.5625,136.3125 3161.2109,135.7422 Q3161.8594,135.1719 3162.2031,133.7813 L3163.2344,134.2969 Q3162.8438,136.0469 3161.9063,137.0234 Q3160.9688,138 3159.6875,138 Z "/><text fill="#000000" font-family="sans-serif" font-size="12" lengthAdjust="spacingAndGlyphs" textLength="92" x="3174" y="137.5576">JdkProxyHandler</text><line style="stroke: #A80036; stroke-width: 1.5;" x1="3146" x2="3268" y1="148" y2="148"/><line style="stroke: #A80036; stroke-width: 1.5;" x1="3146" x2="3268" y1="156" y2="156"/><!--class InvocationHandler--><rect fill="#FEFECE" filter="url(#f11ca77c9ls6ho)" height="48" id="InvocationHandler" style="stroke: #A80036; stroke-width: 1.5;" width="133" x="3186.5" y="8"/><ellipse cx="3201.5" cy="24" fill="#B4A7E5" rx="11" ry="11" style="stroke: #A80036; stroke-width: 1.0;"/><path d="M3198.375,20 L3198.375,18.3125 L3204.3125,18.3125 L3204.3125,20 L3202.4375,20 Q3202.2813,20 3202.2344,20.0313 Q3202.1875,20.0625 3202.1875,20.1094 L3202.1875,28.2031 Q3202.1875,28.25 3202.2344,28.2813 Q3202.2813,28.3125 3202.4375,28.3125 L3204.3125,28.3125 L3204.3125,30 L3198.375,30 L3198.375,28.3125 L3200.25,28.3125 Q3200.4531,28.3125 3200.4766,28.2969 Q3200.5,28.2813 3200.5,28.2031 L3200.5,20.1094 Q3200.5,20.0313 3200.4766,20.0156 Q3200.4531,20 3200.25,20 L3198.375,20 Z "/><text fill="#000000" font-family="sans-serif" font-size="12" font-style="italic" lengthAdjust="spacingAndGlyphs" textLength="101" x="3215.5" y="29.5576">InvocationHandler</text><line style="stroke: #A80036; stroke-width: 1.5;" x1="3187.5" x2="3318.5" y1="40" y2="40"/><line style="stroke: #A80036; stroke-width: 1.5;" x1="3187.5" x2="3318.5" y1="48" y2="48"/><!--class JdkProxySource--><rect fill="#FEFECE" filter="url(#f11ca77c9ls6ho)" height="48" id="JdkProxySource" style="stroke: #A80036; stroke-width: 1.5;" width="130" x="3490" y="116"/><ellipse cx="3505" cy="132" fill="#ADD1B2" rx="11" ry="11" style="stroke: #A80036; stroke-width: 1.0;"/><path d="M3504.6875,138 Q3502.75,138 3501.625,136.5703 Q3500.5,135.1406 3500.5,132.1875 Q3500.5,129.6875 3501.6875,128 Q3502.875,126.3125 3504.9375,126.3125 Q3505.3906,126.3125 3505.8281,126.3125 Q3506.2656,126.3125 3506.5781,126.3125 Q3506.8281,126.3125 3506.9922,126.3125 Q3507.1563,126.3125 3507.5625,126.3125 L3508.2656,130 L3507.2031,130 Q3506.7656,128.9063 3506.1953,128.4531 Q3505.625,128 3504.7031,128 Q3503.5469,128 3502.8672,129.1797 Q3502.1875,130.3594 3502.1875,132.1875 Q3502.1875,134.2031 3502.7109,135.2578 Q3503.2344,136.3125 3504.6406,136.3125 Q3505.5625,136.3125 3506.2109,135.7422 Q3506.8594,135.1719 3507.2031,133.7813 L3508.2344,134.2969 Q3507.8438,136.0469 3506.9063,137.0234 Q3505.9688,138 3504.6875,138 Z "/><text fill="#000000" font-family="sans-serif" font-size="12" lengthAdjust="spacingAndGlyphs" textLength="87" x="3519" y="137.5576">JdkProxySource</text><rect fill="#FFFFFF" height="18.3887" style="stroke: #000000; stroke-width: 1.0; stroke-dasharray: 2.0,2.0;" width="9" x="3614" y="113"/><text fill="#000000" font-family="sans-serif" font-size="12" font-style="italic" lengthAdjust="spacingAndGlyphs" textLength="7" x="3615" y="127.752">T</text><line style="stroke: #A80036; stroke-width: 1.5;" x1="3491" x2="3619" y1="148" y2="148"/><line style="stroke: #A80036; stroke-width: 1.5;" x1="3491" x2="3619" y1="156" y2="156"/><!--class ProxiedKeyedObjectPool--><rect fill="#FEFECE" filter="url(#f11ca77c9ls6ho)" height="48" id="ProxiedKeyedObjectPool" style="stroke: #A80036; stroke-width: 1.5;" width="190" x="1823" y="224"/><ellipse cx="1838" cy="240" fill="#ADD1B2" rx="11" ry="11" style="stroke: #A80036; stroke-width: 1.0;"/><path d="M1837.6875,246 Q1835.75,246 1834.625,244.5703 Q1833.5,243.1406 1833.5,240.1875 Q1833.5,237.6875 1834.6875,236 Q1835.875,234.3125 1837.9375,234.3125 Q1838.3906,234.3125 1838.8281,234.3125 Q1839.2656,234.3125 1839.5781,234.3125 Q1839.8281,234.3125 1839.9922,234.3125 Q1840.1563,234.3125 1840.5625,234.3125 L1841.2656,238 L1840.2031,238 Q1839.7656,236.9063 1839.1953,236.4531 Q1838.625,236 1837.7031,236 Q1836.5469,236 1835.8672,237.1797 Q1835.1875,238.3594 1835.1875,240.1875 Q1835.1875,242.2031 1835.7109,243.2578 Q1836.2344,244.3125 1837.6406,244.3125 Q1838.5625,244.3125 1839.2109,243.7422 Q1839.8594,243.1719 1840.2031,241.7813 L1841.2344,242.2969 Q1840.8438,244.0469 1839.9063,245.0234 Q1838.9688,246 1837.6875,246 Z "/><text fill="#000000" font-family="sans-serif" font-size="12" lengthAdjust="spacingAndGlyphs" textLength="135" x="1852" y="245.5576">ProxiedKeyedObjectPool</text><rect fill="#FFFFFF" height="18.3887" style="stroke: #000000; stroke-width: 1.0; stroke-dasharray: 2.0,2.0;" width="21" x="1995" y="221"/><text fill="#000000" font-family="sans-serif" font-size="12" font-style="italic" lengthAdjust="spacingAndGlyphs" textLength="19" x="1996" y="235.752">K,V</text><line style="stroke: #A80036; stroke-width: 1.5;" x1="1824" x2="2012" y1="256" y2="256"/><line style="stroke: #A80036; stroke-width: 1.5;" x1="1824" x2="2012" y1="264" y2="264"/><!--class ProxiedObjectPool--><rect fill="#FEFECE" filter="url(#f11ca77c9ls6ho)" height="48" id="ProxiedObjectPool" style="stroke: #A80036; stroke-width: 1.5;" width="144" x="875" y="116"/><ellipse cx="890" cy="132" fill="#ADD1B2" rx="11" ry="11" style="stroke: #A80036; stroke-width: 1.0;"/><path d="M889.6875,138 Q887.75,138 886.625,136.5703 Q885.5,135.1406 885.5,132.1875 Q885.5,129.6875 886.6875,128 Q887.875,126.3125 889.9375,126.3125 Q890.3906,126.3125 890.8281,126.3125 Q891.2656,126.3125 891.5781,126.3125 Q891.8281,126.3125 891.9922,126.3125 Q892.1563,126.3125 892.5625,126.3125 L893.2656,130 L892.2031,130 Q891.7656,128.9063 891.1953,128.4531 Q890.625,128 889.7031,128 Q888.5469,128 887.8672,129.1797 Q887.1875,130.3594 887.1875,132.1875 Q887.1875,134.2031 887.7109,135.2578 Q888.2344,136.3125 889.6406,136.3125 Q890.5625,136.3125 891.2109,135.7422 Q891.8594,135.1719 892.2031,133.7813 L893.2344,134.2969 Q892.8438,136.0469 891.9063,137.0234 Q890.9688,138 889.6875,138 Z "/><text fill="#000000" font-family="sans-serif" font-size="12" lengthAdjust="spacingAndGlyphs" textLength="101" x="904" y="137.5576">ProxiedObjectPool</text><rect fill="#FFFFFF" height="18.3887" style="stroke: #000000; stroke-width: 1.0; stroke-dasharray: 2.0,2.0;" width="9" x="1013" y="113"/><text fill="#000000" font-family="sans-serif" font-size="12" font-style="italic" lengthAdjust="spacingAndGlyphs" textLength="7" x="1014" y="127.752">T</text><line style="stroke: #A80036; stroke-width: 1.5;" x1="876" x2="1018" y1="148" y2="148"/><line style="stroke: #A80036; stroke-width: 1.5;" x1="876" x2="1018" y1="156" y2="156"/><!--class AbandonedConfig--><rect fill="#FEFECE" filter="url(#f11ca77c9ls6ho)" height="48" id="AbandonedConfig" style="stroke: #A80036; stroke-width: 1.5;" width="131" x="309.5" y="8"/><ellipse cx="324.5" cy="24" fill="#ADD1B2" rx="11" ry="11" style="stroke: #A80036; stroke-width: 1.0;"/><path d="M324.1875,30 Q322.25,30 321.125,28.5703 Q320,27.1406 320,24.1875 Q320,21.6875 321.1875,20 Q322.375,18.3125 324.4375,18.3125 Q324.8906,18.3125 325.3281,18.3125 Q325.7656,18.3125 326.0781,18.3125 Q326.3281,18.3125 326.4922,18.3125 Q326.6563,18.3125 327.0625,18.3125 L327.7656,22 L326.7031,22 Q326.2656,20.9063 325.6953,20.4531 Q325.125,20 324.2031,20 Q323.0469,20 322.3672,21.1797 Q321.6875,22.3594 321.6875,24.1875 Q321.6875,26.2031 322.2109,27.2578 Q322.7344,28.3125 324.1406,28.3125 Q325.0625,28.3125 325.7109,27.7422 Q326.3594,27.1719 326.7031,25.7813 L327.7344,26.2969 Q327.3438,28.0469 326.4063,29.0234 Q325.4688,30 324.1875,30 Z "/><text fill="#000000" font-family="sans-serif" font-size="12" lengthAdjust="spacingAndGlyphs" textLength="99" x="338.5" y="29.5576">AbandonedConfig</text><line style="stroke: #A80036; stroke-width: 1.5;" x1="310.5" x2="439.5" y1="40" y2="40"/><line style="stroke: #A80036; stroke-width: 1.5;" x1="310.5" x2="439.5" y1="48" y2="48"/><!--class BaseGenericObjectPool--><rect fill="#FEFECE" filter="url(#f11ca77c9ls6ho)" height="48" id="BaseGenericObjectPool" style="stroke: #A80036; stroke-width: 1.5;" width="175" x="1505.5" y="116"/><ellipse cx="1520.5" cy="132" fill="#A9DCDF" rx="11" ry="11" style="stroke: #A80036; stroke-width: 1.0;"/><path d="M1521.5781,133 L1518.7656,133 L1517.9531,134.6094 Q1517.9063,134.7656 1517.9063,134.9063 Q1517.9063,135.0938 1517.9531,135.2031 Q1518,135.3125 1518.2188,135.3125 L1518.7656,135.3125 L1518.7656,137 L1515.5,137 L1515.5,135.3125 L1516.0625,135.3125 Q1516.2813,135.3125 1516.3984,135.25 Q1516.5156,135.1875 1516.5625,135 L1519.6563,125.3125 L1521.0313,125.3125 L1524.0625,134.8906 Q1524.1563,135.125 1524.2969,135.2188 Q1524.4375,135.3125 1524.625,135.3125 L1525.1875,135.3125 L1525.1875,137 L1521.5313,137 L1521.5313,135.3125 L1522.1406,135.3125 Q1522.3125,135.3125 1522.3203,135.2969 Q1522.3281,135.2813 1522.3281,135.2188 Q1522.3281,135.0469 1522.2969,134.9531 L1521.5781,133 Z M1516.3594,136 L1516.3594,136 Z M1517.0313,136 L1517.0313,136 Z M1521.75,136 L1521.75,136 Z M1522.875,136 L1522.875,136 Z M1520.0781,127.4063 L1520.1563,127.4063 L1519.2969,131.3125 L1521.25,131.3125 L1520.0781,127.4063 Z "/><text fill="#000000" font-family="sans-serif" font-size="12" font-style="italic" lengthAdjust="spacingAndGlyphs" textLength="132" x="1534.5" y="137.5576">BaseGenericObjectPool</text><rect fill="#FFFFFF" height="18.3887" style="stroke: #000000; stroke-width: 1.0; stroke-dasharray: 2.0,2.0;" width="9" x="1674.5" y="113"/><text fill="#000000" font-family="sans-serif" font-size="12" font-style="italic" lengthAdjust="spacingAndGlyphs" textLength="7" x="1675.5" y="127.752">T</text><line style="stroke: #A80036; stroke-width: 1.5;" x1="1506.5" x2="1679.5" y1="148" y2="148"/><line style="stroke: #A80036; stroke-width: 1.5;" x1="1506.5" x2="1679.5" y1="156" y2="156"/><!--class BaseObjectPoolConfig--><rect fill="#FEFECE" filter="url(#f11ca77c9ls6ho)" height="48" id="BaseObjectPoolConfig" style="stroke: #A80036; stroke-width: 1.5;" width="157" x="2375.5" y="116"/><ellipse cx="2390.5" cy="132" fill="#A9DCDF" rx="11" ry="11" style="stroke: #A80036; stroke-width: 1.0;"/><path d="M2391.5781,133 L2388.7656,133 L2387.9531,134.6094 Q2387.9063,134.7656 2387.9063,134.9063 Q2387.9063,135.0938 2387.9531,135.2031 Q2388,135.3125 2388.2188,135.3125 L2388.7656,135.3125 L2388.7656,137 L2385.5,137 L2385.5,135.3125 L2386.0625,135.3125 Q2386.2813,135.3125 2386.3984,135.25 Q2386.5156,135.1875 2386.5625,135 L2389.6563,125.3125 L2391.0313,125.3125 L2394.0625,134.8906 Q2394.1563,135.125 2394.2969,135.2188 Q2394.4375,135.3125 2394.625,135.3125 L2395.1875,135.3125 L2395.1875,137 L2391.5313,137 L2391.5313,135.3125 L2392.1406,135.3125 Q2392.3125,135.3125 2392.3203,135.2969 Q2392.3281,135.2813 2392.3281,135.2188 Q2392.3281,135.0469 2392.2969,134.9531 L2391.5781,133 Z M2386.3594,136 L2386.3594,136 Z M2387.0313,136 L2387.0313,136 Z M2391.75,136 L2391.75,136 Z M2392.875,136 L2392.875,136 Z M2390.0781,127.4063 L2390.1563,127.4063 L2389.2969,131.3125 L2391.25,131.3125 L2390.0781,127.4063 Z "/><text fill="#000000" font-family="sans-serif" font-size="12" font-style="italic" lengthAdjust="spacingAndGlyphs" textLength="125" x="2404.5" y="137.5576">BaseObjectPoolConfig</text><line style="stroke: #A80036; stroke-width: 1.5;" x1="2376.5" x2="2531.5" y1="148" y2="148"/><line style="stroke: #A80036; stroke-width: 1.5;" x1="2376.5" x2="2531.5" y1="156" y2="156"/><!--class Cloneable--><rect fill="#FEFECE" filter="url(#f11ca77c9ls6ho)" height="48" id="Cloneable" style="stroke: #A80036; stroke-width: 1.5;" width="90" x="2409" y="8"/><ellipse cx="2424" cy="24" fill="#B4A7E5" rx="11" ry="11" style="stroke: #A80036; stroke-width: 1.0;"/><path d="M2420.875,20 L2420.875,18.3125 L2426.8125,18.3125 L2426.8125,20 L2424.9375,20 Q2424.7813,20 2424.7344,20.0313 Q2424.6875,20.0625 2424.6875,20.1094 L2424.6875,28.2031 Q2424.6875,28.25 2424.7344,28.2813 Q2424.7813,28.3125 2424.9375,28.3125 L2426.8125,28.3125 L2426.8125,30 L2420.875,30 L2420.875,28.3125 L2422.75,28.3125 Q2422.9531,28.3125 2422.9766,28.2969 Q2423,28.2813 2423,28.2031 L2423,20.1094 Q2423,20.0313 2422.9766,20.0156 Q2422.9531,20 2422.75,20 L2420.875,20 Z "/><text fill="#000000" font-family="sans-serif" font-size="12" font-style="italic" lengthAdjust="spacingAndGlyphs" textLength="58" x="2438" y="29.5576">Cloneable</text><line style="stroke: #A80036; stroke-width: 1.5;" x1="2410" x2="2498" y1="40" y2="40"/><line style="stroke: #A80036; stroke-width: 1.5;" x1="2410" x2="2498" y1="48" y2="48"/><!--class CallStack--><rect fill="#FEFECE" filter="url(#f11ca77c9ls6ho)" height="48" id="CallStack" style="stroke: #A80036; stroke-width: 1.5;" width="85" x="3797.5" y="8"/><ellipse cx="3812.5" cy="24" fill="#B4A7E5" rx="11" ry="11" style="stroke: #A80036; stroke-width: 1.0;"/><path d="M3809.375,20 L3809.375,18.3125 L3815.3125,18.3125 L3815.3125,20 L3813.4375,20 Q3813.2813,20 3813.2344,20.0313 Q3813.1875,20.0625 3813.1875,20.1094 L3813.1875,28.2031 Q3813.1875,28.25 3813.2344,28.2813 Q3813.2813,28.3125 3813.4375,28.3125 L3815.3125,28.3125 L3815.3125,30 L3809.375,30 L3809.375,28.3125 L3811.25,28.3125 Q3811.4531,28.3125 3811.4766,28.2969 Q3811.5,28.2813 3811.5,28.2031 L3811.5,20.1094 Q3811.5,20.0313 3811.4766,20.0156 Q3811.4531,20 3811.25,20 L3809.375,20 Z "/><text fill="#000000" font-family="sans-serif" font-size="12" font-style="italic" lengthAdjust="spacingAndGlyphs" textLength="53" x="3826.5" y="29.5576">CallStack</text><line style="stroke: #A80036; stroke-width: 1.5;" x1="3798.5" x2="3881.5" y1="40" y2="40"/><line style="stroke: #A80036; stroke-width: 1.5;" x1="3798.5" x2="3881.5" y1="48" y2="48"/><!--class CallStackUtils--><rect fill="#FEFECE" filter="url(#f11ca77c9ls6ho)" height="48" id="CallStackUtils" style="stroke: #A80036; stroke-width: 1.5;" width="109" x="18.5" y="116"/><ellipse cx="33.5" cy="132" fill="#ADD1B2" rx="11" ry="11" style="stroke: #A80036; stroke-width: 1.0;"/><path d="M33.1875,138 Q31.25,138 30.125,136.5703 Q29,135.1406 29,132.1875 Q29,129.6875 30.1875,128 Q31.375,126.3125 33.4375,126.3125 Q33.8906,126.3125 34.3281,126.3125 Q34.7656,126.3125 35.0781,126.3125 Q35.3281,126.3125 35.4922,126.3125 Q35.6563,126.3125 36.0625,126.3125 L36.7656,130 L35.7031,130 Q35.2656,128.9063 34.6953,128.4531 Q34.125,128 33.2031,128 Q32.0469,128 31.3672,129.1797 Q30.6875,130.3594 30.6875,132.1875 Q30.6875,134.2031 31.2109,135.2578 Q31.7344,136.3125 33.1406,136.3125 Q34.0625,136.3125 34.7109,135.7422 Q35.3594,135.1719 35.7031,133.7813 L36.7344,134.2969 Q36.3438,136.0469 35.4063,137.0234 Q34.4688,138 33.1875,138 Z "/><text fill="#000000" font-family="sans-serif" font-size="12" lengthAdjust="spacingAndGlyphs" textLength="77" x="47.5" y="137.5576">CallStackUtils</text><line style="stroke: #A80036; stroke-width: 1.5;" x1="19.5" x2="126.5" y1="148" y2="148"/><line style="stroke: #A80036; stroke-width: 1.5;" x1="19.5" x2="126.5" y1="156" y2="156"/><!--class DefaultEvictionPolicy--><rect fill="#FEFECE" filter="url(#f11ca77c9ls6ho)" height="48" id="DefaultEvictionPolicy" style="stroke: #A80036; stroke-width: 1.5;" width="156" x="4043" y="116"/><ellipse cx="4058" cy="132" fill="#ADD1B2" rx="11" ry="11" style="stroke: #A80036; stroke-width: 1.0;"/><path d="M4057.6875,138 Q4055.75,138 4054.625,136.5703 Q4053.5,135.1406 4053.5,132.1875 Q4053.5,129.6875 4054.6875,128 Q4055.875,126.3125 4057.9375,126.3125 Q4058.3906,126.3125 4058.8281,126.3125 Q4059.2656,126.3125 4059.5781,126.3125 Q4059.8281,126.3125 4059.9922,126.3125 Q4060.1563,126.3125 4060.5625,126.3125 L4061.2656,130 L4060.2031,130 Q4059.7656,128.9063 4059.1953,128.4531 Q4058.625,128 4057.7031,128 Q4056.5469,128 4055.8672,129.1797 Q4055.1875,130.3594 4055.1875,132.1875 Q4055.1875,134.2031 4055.7109,135.2578 Q4056.2344,136.3125 4057.6406,136.3125 Q4058.5625,136.3125 4059.2109,135.7422 Q4059.8594,135.1719 4060.2031,133.7813 L4061.2344,134.2969 Q4060.8438,136.0469 4059.9063,137.0234 Q4058.9688,138 4057.6875,138 Z "/><text fill="#000000" font-family="sans-serif" font-size="12" lengthAdjust="spacingAndGlyphs" textLength="113" x="4072" y="137.5576">DefaultEvictionPolicy</text><rect fill="#FFFFFF" height="18.3887" style="stroke: #000000; stroke-width: 1.0; stroke-dasharray: 2.0,2.0;" width="9" x="4193" y="113"/><text fill="#000000" font-family="sans-serif" font-size="12" font-style="italic" lengthAdjust="spacingAndGlyphs" textLength="7" x="4194" y="127.752">T</text><line style="stroke: #A80036; stroke-width: 1.5;" x1="4044" x2="4198" y1="148" y2="148"/><line style="stroke: #A80036; stroke-width: 1.5;" x1="4044" x2="4198" y1="156" y2="156"/><!--class EvictionPolicy--><rect fill="#FEFECE" filter="url(#f11ca77c9ls6ho)" height="48" id="EvictionPolicy" style="stroke: #A80036; stroke-width: 1.5;" width="119" x="4061.5" y="8"/><ellipse cx="4076.5" cy="24" fill="#B4A7E5" rx="11" ry="11" style="stroke: #A80036; stroke-width: 1.0;"/><path d="M4073.375,20 L4073.375,18.3125 L4079.3125,18.3125 L4079.3125,20 L4077.4375,20 Q4077.2813,20 4077.2344,20.0313 Q4077.1875,20.0625 4077.1875,20.1094 L4077.1875,28.2031 Q4077.1875,28.25 4077.2344,28.2813 Q4077.2813,28.3125 4077.4375,28.3125 L4079.3125,28.3125 L4079.3125,30 L4073.375,30 L4073.375,28.3125 L4075.25,28.3125 Q4075.4531,28.3125 4075.4766,28.2969 Q4075.5,28.2813 4075.5,28.2031 L4075.5,20.1094 Q4075.5,20.0313 4075.4766,20.0156 Q4075.4531,20 4075.25,20 L4073.375,20 Z "/><text fill="#000000" font-family="sans-serif" font-size="12" font-style="italic" lengthAdjust="spacingAndGlyphs" textLength="76" x="4090.5" y="29.5576">EvictionPolicy</text><rect fill="#FFFFFF" height="18.3887" style="stroke: #000000; stroke-width: 1.0; stroke-dasharray: 2.0,2.0;" width="9" x="4174.5" y="5"/><text fill="#000000" font-family="sans-serif" font-size="12" font-style="italic" lengthAdjust="spacingAndGlyphs" textLength="7" x="4175.5" y="19.752">T</text><line style="stroke: #A80036; stroke-width: 1.5;" x1="4062.5" x2="4179.5" y1="40" y2="40"/><line style="stroke: #A80036; stroke-width: 1.5;" x1="4062.5" x2="4179.5" y1="48" y2="48"/><!--class DefaultPooledObject--><rect fill="#FEFECE" filter="url(#f11ca77c9ls6ho)" height="48" id="DefaultPooledObject" style="stroke: #A80036; stroke-width: 1.5;" width="156" x="2686" y="224"/><ellipse cx="2701" cy="240" fill="#ADD1B2" rx="11" ry="11" style="stroke: #A80036; stroke-width: 1.0;"/><path d="M2700.6875,246 Q2698.75,246 2697.625,244.5703 Q2696.5,243.1406 2696.5,240.1875 Q2696.5,237.6875 2697.6875,236 Q2698.875,234.3125 2700.9375,234.3125 Q2701.3906,234.3125 2701.8281,234.3125 Q2702.2656,234.3125 2702.5781,234.3125 Q2702.8281,234.3125 2702.9922,234.3125 Q2703.1563,234.3125 2703.5625,234.3125 L2704.2656,238 L2703.2031,238 Q2702.7656,236.9063 2702.1953,236.4531 Q2701.625,236 2700.7031,236 Q2699.5469,236 2698.8672,237.1797 Q2698.1875,238.3594 2698.1875,240.1875 Q2698.1875,242.2031 2698.7109,243.2578 Q2699.2344,244.3125 2700.6406,244.3125 Q2701.5625,244.3125 2702.2109,243.7422 Q2702.8594,243.1719 2703.2031,241.7813 L2704.2344,242.2969 Q2703.8438,244.0469 2702.9063,245.0234 Q2701.9688,246 2700.6875,246 Z "/><text fill="#000000" font-family="sans-serif" font-size="12" lengthAdjust="spacingAndGlyphs" textLength="113" x="2715" y="245.5576">DefaultPooledObject</text><rect fill="#FFFFFF" height="18.3887" style="stroke: #000000; stroke-width: 1.0; stroke-dasharray: 2.0,2.0;" width="9" x="2836" y="221"/><text fill="#000000" font-family="sans-serif" font-size="12" font-style="italic" lengthAdjust="spacingAndGlyphs" textLength="7" x="2837" y="235.752">T</text><line style="stroke: #A80036; stroke-width: 1.5;" x1="2687" x2="2841" y1="256" y2="256"/><line style="stroke: #A80036; stroke-width: 1.5;" x1="2687" x2="2841" y1="264" y2="264"/><!--class DefaultPooledObjectInfo--><rect fill="#FEFECE" filter="url(#f11ca77c9ls6ho)" height="48" id="DefaultPooledObjectInfo" style="stroke: #A80036; stroke-width: 1.5;" width="165" x="4235.5" y="116"/><ellipse cx="4250.5" cy="132" fill="#ADD1B2" rx="11" ry="11" style="stroke: #A80036; stroke-width: 1.0;"/><path d="M4250.1875,138 Q4248.25,138 4247.125,136.5703 Q4246,135.1406 4246,132.1875 Q4246,129.6875 4247.1875,128 Q4248.375,126.3125 4250.4375,126.3125 Q4250.8906,126.3125 4251.3281,126.3125 Q4251.7656,126.3125 4252.0781,126.3125 Q4252.3281,126.3125 4252.4922,126.3125 Q4252.6563,126.3125 4253.0625,126.3125 L4253.7656,130 L4252.7031,130 Q4252.2656,128.9063 4251.6953,128.4531 Q4251.125,128 4250.2031,128 Q4249.0469,128 4248.3672,129.1797 Q4247.6875,130.3594 4247.6875,132.1875 Q4247.6875,134.2031 4248.2109,135.2578 Q4248.7344,136.3125 4250.1406,136.3125 Q4251.0625,136.3125 4251.7109,135.7422 Q4252.3594,135.1719 4252.7031,133.7813 L4253.7344,134.2969 Q4253.3438,136.0469 4252.4063,137.0234 Q4251.4688,138 4250.1875,138 Z "/><text fill="#000000" font-family="sans-serif" font-size="12" lengthAdjust="spacingAndGlyphs" textLength="133" x="4264.5" y="137.5576">DefaultPooledObjectInfo</text><line style="stroke: #A80036; stroke-width: 1.5;" x1="4236.5" x2="4399.5" y1="148" y2="148"/><line style="stroke: #A80036; stroke-width: 1.5;" x1="4236.5" x2="4399.5" y1="156" y2="156"/><!--class DefaultPooledObjectInfoMBean--><rect fill="#FEFECE" filter="url(#f11ca77c9ls6ho)" height="48" id="DefaultPooledObjectInfoMBean" style="stroke: #A80036; stroke-width: 1.5;" width="205" x="4215.5" y="8"/><ellipse cx="4230.5" cy="24" fill="#B4A7E5" rx="11" ry="11" style="stroke: #A80036; stroke-width: 1.0;"/><path d="M4227.375,20 L4227.375,18.3125 L4233.3125,18.3125 L4233.3125,20 L4231.4375,20 Q4231.2813,20 4231.2344,20.0313 Q4231.1875,20.0625 4231.1875,20.1094 L4231.1875,28.2031 Q4231.1875,28.25 4231.2344,28.2813 Q4231.2813,28.3125 4231.4375,28.3125 L4233.3125,28.3125 L4233.3125,30 L4227.375,30 L4227.375,28.3125 L4229.25,28.3125 Q4229.4531,28.3125 4229.4766,28.2969 Q4229.5,28.2813 4229.5,28.2031 L4229.5,20.1094 Q4229.5,20.0313 4229.4766,20.0156 Q4229.4531,20 4229.25,20 L4227.375,20 Z "/><text fill="#000000" font-family="sans-serif" font-size="12" font-style="italic" lengthAdjust="spacingAndGlyphs" textLength="173" x="4244.5" y="29.5576">DefaultPooledObjectInfoMBean</text><line style="stroke: #A80036; stroke-width: 1.5;" x1="4216.5" x2="4419.5" y1="40" y2="40"/><line style="stroke: #A80036; stroke-width: 1.5;" x1="4216.5" x2="4419.5" y1="48" y2="48"/><!--class EvictionConfig--><rect fill="#FEFECE" filter="url(#f11ca77c9ls6ho)" height="48" id="EvictionConfig" style="stroke: #A80036; stroke-width: 1.5;" width="110" x="163" y="116"/><ellipse cx="178" cy="132" fill="#ADD1B2" rx="11" ry="11" style="stroke: #A80036; stroke-width: 1.0;"/><path d="M177.6875,138 Q175.75,138 174.625,136.5703 Q173.5,135.1406 173.5,132.1875 Q173.5,129.6875 174.6875,128 Q175.875,126.3125 177.9375,126.3125 Q178.3906,126.3125 178.8281,126.3125 Q179.2656,126.3125 179.5781,126.3125 Q179.8281,126.3125 179.9922,126.3125 Q180.1563,126.3125 180.5625,126.3125 L181.2656,130 L180.2031,130 Q179.7656,128.9063 179.1953,128.4531 Q178.625,128 177.7031,128 Q176.5469,128 175.8672,129.1797 Q175.1875,130.3594 175.1875,132.1875 Q175.1875,134.2031 175.7109,135.2578 Q176.2344,136.3125 177.6406,136.3125 Q178.5625,136.3125 179.2109,135.7422 Q179.8594,135.1719 180.2031,133.7813 L181.2344,134.2969 Q180.8438,136.0469 179.9063,137.0234 Q178.9688,138 177.6875,138 Z "/><text fill="#000000" font-family="sans-serif" font-size="12" lengthAdjust="spacingAndGlyphs" textLength="78" x="192" y="137.5576">EvictionConfig</text><line style="stroke: #A80036; stroke-width: 1.5;" x1="164" x2="272" y1="148" y2="148"/><line style="stroke: #A80036; stroke-width: 1.5;" x1="164" x2="272" y1="156" y2="156"/><!--class EvictionTimer--><rect fill="#FEFECE" filter="url(#f11ca77c9ls6ho)" height="48" id="EvictionTimer" style="stroke: #A80036; stroke-width: 1.5;" width="106" x="308" y="116"/><ellipse cx="323" cy="132" fill="#ADD1B2" rx="11" ry="11" style="stroke: #A80036; stroke-width: 1.0;"/><path d="M322.6875,138 Q320.75,138 319.625,136.5703 Q318.5,135.1406 318.5,132.1875 Q318.5,129.6875 319.6875,128 Q320.875,126.3125 322.9375,126.3125 Q323.3906,126.3125 323.8281,126.3125 Q324.2656,126.3125 324.5781,126.3125 Q324.8281,126.3125 324.9922,126.3125 Q325.1563,126.3125 325.5625,126.3125 L326.2656,130 L325.2031,130 Q324.7656,128.9063 324.1953,128.4531 Q323.625,128 322.7031,128 Q321.5469,128 320.8672,129.1797 Q320.1875,130.3594 320.1875,132.1875 Q320.1875,134.2031 320.7109,135.2578 Q321.2344,136.3125 322.6406,136.3125 Q323.5625,136.3125 324.2109,135.7422 Q324.8594,135.1719 325.2031,133.7813 L326.2344,134.2969 Q325.8438,136.0469 324.9063,137.0234 Q323.9688,138 322.6875,138 Z "/><text fill="#000000" font-family="sans-serif" font-size="12" lengthAdjust="spacingAndGlyphs" textLength="74" x="337" y="137.5576">EvictionTimer</text><line style="stroke: #A80036; stroke-width: 1.5;" x1="309" x2="413" y1="148" y2="148"/><line style="stroke: #A80036; stroke-width: 1.5;" x1="309" x2="413" y1="156" y2="156"/><!--class GenericKeyedObjectPool--><rect fill="#FEFECE" filter="url(#f11ca77c9ls6ho)" height="48" id="GenericKeyedObjectPool" style="stroke: #A80036; stroke-width: 1.5;" width="191" x="1596.5" y="224"/><ellipse cx="1611.5" cy="240" fill="#ADD1B2" rx="11" ry="11" style="stroke: #A80036; stroke-width: 1.0;"/><path d="M1611.1875,246 Q1609.25,246 1608.125,244.5703 Q1607,243.1406 1607,240.1875 Q1607,237.6875 1608.1875,236 Q1609.375,234.3125 1611.4375,234.3125 Q1611.8906,234.3125 1612.3281,234.3125 Q1612.7656,234.3125 1613.0781,234.3125 Q1613.3281,234.3125 1613.4922,234.3125 Q1613.6563,234.3125 1614.0625,234.3125 L1614.7656,238 L1613.7031,238 Q1613.2656,236.9063 1612.6953,236.4531 Q1612.125,236 1611.2031,236 Q1610.0469,236 1609.3672,237.1797 Q1608.6875,238.3594 1608.6875,240.1875 Q1608.6875,242.2031 1609.2109,243.2578 Q1609.7344,244.3125 1611.1406,244.3125 Q1612.0625,244.3125 1612.7109,243.7422 Q1613.3594,243.1719 1613.7031,241.7813 L1614.7344,242.2969 Q1614.3438,244.0469 1613.4063,245.0234 Q1612.4688,246 1611.1875,246 Z "/><text fill="#000000" font-family="sans-serif" font-size="12" lengthAdjust="spacingAndGlyphs" textLength="137" x="1625.5" y="245.5576">GenericKeyedObjectPool</text><rect fill="#FFFFFF" height="18.3887" style="stroke: #000000; stroke-width: 1.0; stroke-dasharray: 2.0,2.0;" width="20" x="1770.5" y="221"/><text fill="#000000" font-family="sans-serif" font-size="12" font-style="italic" lengthAdjust="spacingAndGlyphs" textLength="18" x="1771.5" y="235.752">K,T</text><line style="stroke: #A80036; stroke-width: 1.5;" x1="1597.5" x2="1786.5" y1="256" y2="256"/><line style="stroke: #A80036; stroke-width: 1.5;" x1="1597.5" x2="1786.5" y1="264" y2="264"/><!--class GenericKeyedObjectPoolMXBean--><rect fill="#FEFECE" filter="url(#f11ca77c9ls6ho)" height="48" id="GenericKeyedObjectPoolMXBean" style="stroke: #A80036; stroke-width: 1.5;" width="229" x="1901.5" y="116"/><ellipse cx="1916.5" cy="132" fill="#B4A7E5" rx="11" ry="11" style="stroke: #A80036; stroke-width: 1.0;"/><path d="M1913.375,128 L1913.375,126.3125 L1919.3125,126.3125 L1919.3125,128 L1917.4375,128 Q1917.2813,128 1917.2344,128.0313 Q1917.1875,128.0625 1917.1875,128.1094 L1917.1875,136.2031 Q1917.1875,136.25 1917.2344,136.2813 Q1917.2813,136.3125 1917.4375,136.3125 L1919.3125,136.3125 L1919.3125,138 L1913.375,138 L1913.375,136.3125 L1915.25,136.3125 Q1915.4531,136.3125 1915.4766,136.2969 Q1915.5,136.2813 1915.5,136.2031 L1915.5,128.1094 Q1915.5,128.0313 1915.4766,128.0156 Q1915.4531,128 1915.25,128 L1913.375,128 Z "/><text fill="#000000" font-family="sans-serif" font-size="12" font-style="italic" lengthAdjust="spacingAndGlyphs" textLength="185" x="1930.5" y="137.5576">GenericKeyedObjectPoolMXBean</text><rect fill="#FFFFFF" height="18.3887" style="stroke: #000000; stroke-width: 1.0; stroke-dasharray: 2.0,2.0;" width="10" x="2123.5" y="113"/><text fill="#000000" font-family="sans-serif" font-size="12" font-style="italic" lengthAdjust="spacingAndGlyphs" textLength="8" x="2124.5" y="127.752">K</text><line style="stroke: #A80036; stroke-width: 1.5;" x1="1902.5" x2="2129.5" y1="148" y2="148"/><line style="stroke: #A80036; stroke-width: 1.5;" x1="1902.5" x2="2129.5" y1="156" y2="156"/><!--class GenericKeyedObjectPoolConfig--><rect fill="#FEFECE" filter="url(#f11ca77c9ls6ho)" height="48" id="GenericKeyedObjectPoolConfig" style="stroke: #A80036; stroke-width: 1.5;" width="205" x="2239.5" y="224"/><ellipse cx="2254.5" cy="240" fill="#ADD1B2" rx="11" ry="11" style="stroke: #A80036; stroke-width: 1.0;"/><path d="M2254.1875,246 Q2252.25,246 2251.125,244.5703 Q2250,243.1406 2250,240.1875 Q2250,237.6875 2251.1875,236 Q2252.375,234.3125 2254.4375,234.3125 Q2254.8906,234.3125 2255.3281,234.3125 Q2255.7656,234.3125 2256.0781,234.3125 Q2256.3281,234.3125 2256.4922,234.3125 Q2256.6563,234.3125 2257.0625,234.3125 L2257.7656,238 L2256.7031,238 Q2256.2656,236.9063 2255.6953,236.4531 Q2255.125,236 2254.2031,236 Q2253.0469,236 2252.3672,237.1797 Q2251.6875,238.3594 2251.6875,240.1875 Q2251.6875,242.2031 2252.2109,243.2578 Q2252.7344,244.3125 2254.1406,244.3125 Q2255.0625,244.3125 2255.7109,243.7422 Q2256.3594,243.1719 2256.7031,241.7813 L2257.7344,242.2969 Q2257.3438,244.0469 2256.4063,245.0234 Q2255.4688,246 2254.1875,246 Z "/><text fill="#000000" font-family="sans-serif" font-size="12" lengthAdjust="spacingAndGlyphs" textLength="173" x="2268.5" y="245.5576">GenericKeyedObjectPoolConfig</text><line style="stroke: #A80036; stroke-width: 1.5;" x1="2240.5" x2="2443.5" y1="256" y2="256"/><line style="stroke: #A80036; stroke-width: 1.5;" x1="2240.5" x2="2443.5" y1="264" y2="264"/><!--class GenericObjectPool--><rect fill="#FEFECE" filter="url(#f11ca77c9ls6ho)" height="48" id="GenericObjectPool" style="stroke: #A80036; stroke-width: 1.5;" width="146" x="1211" y="224"/><ellipse cx="1226" cy="240" fill="#ADD1B2" rx="11" ry="11" style="stroke: #A80036; stroke-width: 1.0;"/><path d="M1225.6875,246 Q1223.75,246 1222.625,244.5703 Q1221.5,243.1406 1221.5,240.1875 Q1221.5,237.6875 1222.6875,236 Q1223.875,234.3125 1225.9375,234.3125 Q1226.3906,234.3125 1226.8281,234.3125 Q1227.2656,234.3125 1227.5781,234.3125 Q1227.8281,234.3125 1227.9922,234.3125 Q1228.1563,234.3125 1228.5625,234.3125 L1229.2656,238 L1228.2031,238 Q1227.7656,236.9063 1227.1953,236.4531 Q1226.625,236 1225.7031,236 Q1224.5469,236 1223.8672,237.1797 Q1223.1875,238.3594 1223.1875,240.1875 Q1223.1875,242.2031 1223.7109,243.2578 Q1224.2344,244.3125 1225.6406,244.3125 Q1226.5625,244.3125 1227.2109,243.7422 Q1227.8594,243.1719 1228.2031,241.7813 L1229.2344,242.2969 Q1228.8438,244.0469 1227.9063,245.0234 Q1226.9688,246 1225.6875,246 Z "/><text fill="#000000" font-family="sans-serif" font-size="12" lengthAdjust="spacingAndGlyphs" textLength="103" x="1240" y="245.5576">GenericObjectPool</text><rect fill="#FFFFFF" height="18.3887" style="stroke: #000000; stroke-width: 1.0; stroke-dasharray: 2.0,2.0;" width="9" x="1351" y="221"/><text fill="#000000" font-family="sans-serif" font-size="12" font-style="italic" lengthAdjust="spacingAndGlyphs" textLength="7" x="1352" y="235.752">T</text><line style="stroke: #A80036; stroke-width: 1.5;" x1="1212" x2="1356" y1="256" y2="256"/><line style="stroke: #A80036; stroke-width: 1.5;" x1="1212" x2="1356" y1="264" y2="264"/><!--class GenericObjectPoolMXBean--><rect fill="#FEFECE" filter="url(#f11ca77c9ls6ho)" height="48" id="GenericObjectPoolMXBean" style="stroke: #A80036; stroke-width: 1.5;" width="182" x="1288" y="116"/><ellipse cx="1303" cy="132" fill="#B4A7E5" rx="11" ry="11" style="stroke: #A80036; stroke-width: 1.0;"/><path d="M1299.875,128 L1299.875,126.3125 L1305.8125,126.3125 L1305.8125,128 L1303.9375,128 Q1303.7813,128 1303.7344,128.0313 Q1303.6875,128.0625 1303.6875,128.1094 L1303.6875,136.2031 Q1303.6875,136.25 1303.7344,136.2813 Q1303.7813,136.3125 1303.9375,136.3125 L1305.8125,136.3125 L1305.8125,138 L1299.875,138 L1299.875,136.3125 L1301.75,136.3125 Q1301.9531,136.3125 1301.9766,136.2969 Q1302,136.2813 1302,136.2031 L1302,128.1094 Q1302,128.0313 1301.9766,128.0156 Q1301.9531,128 1301.75,128 L1299.875,128 Z "/><text fill="#000000" font-family="sans-serif" font-size="12" font-style="italic" lengthAdjust="spacingAndGlyphs" textLength="150" x="1317" y="137.5576">GenericObjectPoolMXBean</text><line style="stroke: #A80036; stroke-width: 1.5;" x1="1289" x2="1469" y1="148" y2="148"/><line style="stroke: #A80036; stroke-width: 1.5;" x1="1289" x2="1469" y1="156" y2="156"/><!--class GenericObjectPoolConfig--><rect fill="#FEFECE" filter="url(#f11ca77c9ls6ho)" height="48" id="GenericObjectPoolConfig" style="stroke: #A80036; stroke-width: 1.5;" width="171" x="2479.5" y="224"/><ellipse cx="2494.5" cy="240" fill="#ADD1B2" rx="11" ry="11" style="stroke: #A80036; stroke-width: 1.0;"/><path d="M2494.1875,246 Q2492.25,246 2491.125,244.5703 Q2490,243.1406 2490,240.1875 Q2490,237.6875 2491.1875,236 Q2492.375,234.3125 2494.4375,234.3125 Q2494.8906,234.3125 2495.3281,234.3125 Q2495.7656,234.3125 2496.0781,234.3125 Q2496.3281,234.3125 2496.4922,234.3125 Q2496.6563,234.3125 2497.0625,234.3125 L2497.7656,238 L2496.7031,238 Q2496.2656,236.9063 2495.6953,236.4531 Q2495.125,236 2494.2031,236 Q2493.0469,236 2492.3672,237.1797 Q2491.6875,238.3594 2491.6875,240.1875 Q2491.6875,242.2031 2492.2109,243.2578 Q2492.7344,244.3125 2494.1406,244.3125 Q2495.0625,244.3125 2495.7109,243.7422 Q2496.3594,243.1719 2496.7031,241.7813 L2497.7344,242.2969 Q2497.3438,244.0469 2496.4063,245.0234 Q2495.4688,246 2494.1875,246 Z "/><text fill="#000000" font-family="sans-serif" font-size="12" lengthAdjust="spacingAndGlyphs" textLength="139" x="2508.5" y="245.5576">GenericObjectPoolConfig</text><line style="stroke: #A80036; stroke-width: 1.5;" x1="2480.5" x2="2649.5" y1="256" y2="256"/><line style="stroke: #A80036; stroke-width: 1.5;" x1="2480.5" x2="2649.5" y1="264" y2="264"/><!--class InterruptibleReentrantLock--><rect fill="#FEFECE" filter="url(#f11ca77c9ls6ho)" height="48" id="InterruptibleReentrantLock" style="stroke: #A80036; stroke-width: 1.5;" width="177" x="4435.5" y="116"/><ellipse cx="4450.5" cy="132" fill="#ADD1B2" rx="11" ry="11" style="stroke: #A80036; stroke-width: 1.0;"/><path d="M4450.1875,138 Q4448.25,138 4447.125,136.5703 Q4446,135.1406 4446,132.1875 Q4446,129.6875 4447.1875,128 Q4448.375,126.3125 4450.4375,126.3125 Q4450.8906,126.3125 4451.3281,126.3125 Q4451.7656,126.3125 4452.0781,126.3125 Q4452.3281,126.3125 4452.4922,126.3125 Q4452.6563,126.3125 4453.0625,126.3125 L4453.7656,130 L4452.7031,130 Q4452.2656,128.9063 4451.6953,128.4531 Q4451.125,128 4450.2031,128 Q4449.0469,128 4448.3672,129.1797 Q4447.6875,130.3594 4447.6875,132.1875 Q4447.6875,134.2031 4448.2109,135.2578 Q4448.7344,136.3125 4450.1406,136.3125 Q4451.0625,136.3125 4451.7109,135.7422 Q4452.3594,135.1719 4452.7031,133.7813 L4453.7344,134.2969 Q4453.3438,136.0469 4452.4063,137.0234 Q4451.4688,138 4450.1875,138 Z "/><text fill="#000000" font-family="sans-serif" font-size="12" lengthAdjust="spacingAndGlyphs" textLength="145" x="4464.5" y="137.5576">InterruptibleReentrantLock</text><line style="stroke: #A80036; stroke-width: 1.5;" x1="4436.5" x2="4611.5" y1="148" y2="148"/><line style="stroke: #A80036; stroke-width: 1.5;" x1="4436.5" x2="4611.5" y1="156" y2="156"/><!--class ReentrantLock--><rect fill="#FEFECE" filter="url(#f11ca77c9ls6ho)" height="48" id="ReentrantLock" style="stroke: #A80036; stroke-width: 1.5;" width="112" x="4468" y="8"/><ellipse cx="4483" cy="24" fill="#ADD1B2" rx="11" ry="11" style="stroke: #A80036; stroke-width: 1.0;"/><path d="M4482.6875,30 Q4480.75,30 4479.625,28.5703 Q4478.5,27.1406 4478.5,24.1875 Q4478.5,21.6875 4479.6875,20 Q4480.875,18.3125 4482.9375,18.3125 Q4483.3906,18.3125 4483.8281,18.3125 Q4484.2656,18.3125 4484.5781,18.3125 Q4484.8281,18.3125 4484.9922,18.3125 Q4485.1563,18.3125 4485.5625,18.3125 L4486.2656,22 L4485.2031,22 Q4484.7656,20.9063 4484.1953,20.4531 Q4483.625,20 4482.7031,20 Q4481.5469,20 4480.8672,21.1797 Q4480.1875,22.3594 4480.1875,24.1875 Q4480.1875,26.2031 4480.7109,27.2578 Q4481.2344,28.3125 4482.6406,28.3125 Q4483.5625,28.3125 4484.2109,27.7422 Q4484.8594,27.1719 4485.2031,25.7813 L4486.2344,26.2969 Q4485.8438,28.0469 4484.9063,29.0234 Q4483.9688,30 4482.6875,30 Z "/><text fill="#000000" font-family="sans-serif" font-size="12" lengthAdjust="spacingAndGlyphs" textLength="80" x="4497" y="29.5576">ReentrantLock</text><line style="stroke: #A80036; stroke-width: 1.5;" x1="4469" x2="4579" y1="40" y2="40"/><line style="stroke: #A80036; stroke-width: 1.5;" x1="4469" x2="4579" y1="48" y2="48"/><!--class LinkedBlockingDeque--><rect fill="#FEFECE" filter="url(#f11ca77c9ls6ho)" height="48" id="LinkedBlockingDeque" style="stroke: #A80036; stroke-width: 1.5;" width="165" x="4715.5" y="116"/><ellipse cx="4730.5" cy="132" fill="#ADD1B2" rx="11" ry="11" style="stroke: #A80036; stroke-width: 1.0;"/><path d="M4730.1875,138 Q4728.25,138 4727.125,136.5703 Q4726,135.1406 4726,132.1875 Q4726,129.6875 4727.1875,128 Q4728.375,126.3125 4730.4375,126.3125 Q4730.8906,126.3125 4731.3281,126.3125 Q4731.7656,126.3125 4732.0781,126.3125 Q4732.3281,126.3125 4732.4922,126.3125 Q4732.6563,126.3125 4733.0625,126.3125 L4733.7656,130 L4732.7031,130 Q4732.2656,128.9063 4731.6953,128.4531 Q4731.125,128 4730.2031,128 Q4729.0469,128 4728.3672,129.1797 Q4727.6875,130.3594 4727.6875,132.1875 Q4727.6875,134.2031 4728.2109,135.2578 Q4728.7344,136.3125 4730.1406,136.3125 Q4731.0625,136.3125 4731.7109,135.7422 Q4732.3594,135.1719 4732.7031,133.7813 L4733.7344,134.2969 Q4733.3438,136.0469 4732.4063,137.0234 Q4731.4688,138 4730.1875,138 Z "/><text fill="#000000" font-family="sans-serif" font-size="12" lengthAdjust="spacingAndGlyphs" textLength="121" x="4744.5" y="137.5576">LinkedBlockingDeque</text><rect fill="#FFFFFF" height="18.3887" style="stroke: #000000; stroke-width: 1.0; stroke-dasharray: 2.0,2.0;" width="10" x="4873.5" y="113"/><text fill="#000000" font-family="sans-serif" font-size="12" font-style="italic" lengthAdjust="spacingAndGlyphs" textLength="8" x="4874.5" y="127.752">E</text><line style="stroke: #A80036; stroke-width: 1.5;" x1="4716.5" x2="4879.5" y1="148" y2="148"/><line style="stroke: #A80036; stroke-width: 1.5;" x1="4716.5" x2="4879.5" y1="156" y2="156"/><!--class AbstractQueue--><rect fill="#FEFECE" filter="url(#f11ca77c9ls6ho)" height="48" id="AbstractQueue" style="stroke: #A80036; stroke-width: 1.5;" width="113" x="4615.5" y="8"/><ellipse cx="4630.5" cy="24" fill="#ADD1B2" rx="11" ry="11" style="stroke: #A80036; stroke-width: 1.0;"/><path d="M4630.1875,30 Q4628.25,30 4627.125,28.5703 Q4626,27.1406 4626,24.1875 Q4626,21.6875 4627.1875,20 Q4628.375,18.3125 4630.4375,18.3125 Q4630.8906,18.3125 4631.3281,18.3125 Q4631.7656,18.3125 4632.0781,18.3125 Q4632.3281,18.3125 4632.4922,18.3125 Q4632.6563,18.3125 4633.0625,18.3125 L4633.7656,22 L4632.7031,22 Q4632.2656,20.9063 4631.6953,20.4531 Q4631.125,20 4630.2031,20 Q4629.0469,20 4628.3672,21.1797 Q4627.6875,22.3594 4627.6875,24.1875 Q4627.6875,26.2031 4628.2109,27.2578 Q4628.7344,28.3125 4630.1406,28.3125 Q4631.0625,28.3125 4631.7109,27.7422 Q4632.3594,27.1719 4632.7031,25.7813 L4633.7344,26.2969 Q4633.3438,28.0469 4632.4063,29.0234 Q4631.4688,30 4630.1875,30 Z "/><text fill="#000000" font-family="sans-serif" font-size="12" lengthAdjust="spacingAndGlyphs" textLength="81" x="4644.5" y="29.5576">AbstractQueue</text><line style="stroke: #A80036; stroke-width: 1.5;" x1="4616.5" x2="4727.5" y1="40" y2="40"/><line style="stroke: #A80036; stroke-width: 1.5;" x1="4616.5" x2="4727.5" y1="48" y2="48"/><!--class Deque--><rect fill="#FEFECE" filter="url(#f11ca77c9ls6ho)" height="48" id="Deque" style="stroke: #A80036; stroke-width: 1.5;" width="69" x="4763.5" y="8"/><ellipse cx="4778.5" cy="24" fill="#B4A7E5" rx="11" ry="11" style="stroke: #A80036; stroke-width: 1.0;"/><path d="M4775.375,20 L4775.375,18.3125 L4781.3125,18.3125 L4781.3125,20 L4779.4375,20 Q4779.2813,20 4779.2344,20.0313 Q4779.1875,20.0625 4779.1875,20.1094 L4779.1875,28.2031 Q4779.1875,28.25 4779.2344,28.2813 Q4779.2813,28.3125 4779.4375,28.3125 L4781.3125,28.3125 L4781.3125,30 L4775.375,30 L4775.375,28.3125 L4777.25,28.3125 Q4777.4531,28.3125 4777.4766,28.2969 Q4777.5,28.2813 4777.5,28.2031 L4777.5,20.1094 Q4777.5,20.0313 4777.4766,20.0156 Q4777.4531,20 4777.25,20 L4775.375,20 Z "/><text fill="#000000" font-family="sans-serif" font-size="12" font-style="italic" lengthAdjust="spacingAndGlyphs" textLength="37" x="4792.5" y="29.5576">Deque</text><line style="stroke: #A80036; stroke-width: 1.5;" x1="4764.5" x2="4831.5" y1="40" y2="40"/><line style="stroke: #A80036; stroke-width: 1.5;" x1="4764.5" x2="4831.5" y1="48" y2="48"/><!--class Serializable--><rect fill="#FEFECE" filter="url(#f11ca77c9ls6ho)" height="48" id="Serializable" style="stroke: #A80036; stroke-width: 1.5;" width="99" x="4867.5" y="8"/><ellipse cx="4882.5" cy="24" fill="#B4A7E5" rx="11" ry="11" style="stroke: #A80036; stroke-width: 1.0;"/><path d="M4879.375,20 L4879.375,18.3125 L4885.3125,18.3125 L4885.3125,20 L4883.4375,20 Q4883.2813,20 4883.2344,20.0313 Q4883.1875,20.0625 4883.1875,20.1094 L4883.1875,28.2031 Q4883.1875,28.25 4883.2344,28.2813 Q4883.2813,28.3125 4883.4375,28.3125 L4885.3125,28.3125 L4885.3125,30 L4879.375,30 L4879.375,28.3125 L4881.25,28.3125 Q4881.4531,28.3125 4881.4766,28.2969 Q4881.5,28.2813 4881.5,28.2031 L4881.5,20.1094 Q4881.5,20.0313 4881.4766,20.0156 Q4881.4531,20 4881.25,20 L4879.375,20 Z "/><text fill="#000000" font-family="sans-serif" font-size="12" font-style="italic" lengthAdjust="spacingAndGlyphs" textLength="67" x="4896.5" y="29.5576">Serializable</text><line style="stroke: #A80036; stroke-width: 1.5;" x1="4868.5" x2="4965.5" y1="40" y2="40"/><line style="stroke: #A80036; stroke-width: 1.5;" x1="4868.5" x2="4965.5" y1="48" y2="48"/><!--class PooledSoftReference--><rect fill="#FEFECE" filter="url(#f11ca77c9ls6ho)" height="48" id="PooledSoftReference" style="stroke: #A80036; stroke-width: 1.5;" width="160" x="2684" y="332"/><ellipse cx="2699" cy="348" fill="#ADD1B2" rx="11" ry="11" style="stroke: #A80036; stroke-width: 1.0;"/><path d="M2698.6875,354 Q2696.75,354 2695.625,352.5703 Q2694.5,351.1406 2694.5,348.1875 Q2694.5,345.6875 2695.6875,344 Q2696.875,342.3125 2698.9375,342.3125 Q2699.3906,342.3125 2699.8281,342.3125 Q2700.2656,342.3125 2700.5781,342.3125 Q2700.8281,342.3125 2700.9922,342.3125 Q2701.1563,342.3125 2701.5625,342.3125 L2702.2656,346 L2701.2031,346 Q2700.7656,344.9063 2700.1953,344.4531 Q2699.625,344 2698.7031,344 Q2697.5469,344 2696.8672,345.1797 Q2696.1875,346.3594 2696.1875,348.1875 Q2696.1875,350.2031 2696.7109,351.2578 Q2697.2344,352.3125 2698.6406,352.3125 Q2699.5625,352.3125 2700.2109,351.7422 Q2700.8594,351.1719 2701.2031,349.7813 L2702.2344,350.2969 Q2701.8438,352.0469 2700.9063,353.0234 Q2699.9688,354 2698.6875,354 Z "/><text fill="#000000" font-family="sans-serif" font-size="12" lengthAdjust="spacingAndGlyphs" textLength="117" x="2713" y="353.5576">PooledSoftReference</text><rect fill="#FFFFFF" height="18.3887" style="stroke: #000000; stroke-width: 1.0; stroke-dasharray: 2.0,2.0;" width="9" x="2838" y="329"/><text fill="#000000" font-family="sans-serif" font-size="12" font-style="italic" lengthAdjust="spacingAndGlyphs" textLength="7" x="2839" y="343.752">T</text><line style="stroke: #A80036; stroke-width: 1.5;" x1="2685" x2="2843" y1="364" y2="364"/><line style="stroke: #A80036; stroke-width: 1.5;" x1="2685" x2="2843" y1="372" y2="372"/><!--class PoolImplUtils--><rect fill="#FEFECE" filter="url(#f11ca77c9ls6ho)" height="48" id="PoolImplUtils" style="stroke: #A80036; stroke-width: 1.5;" width="106" x="20" y="224"/><ellipse cx="35" cy="240" fill="#ADD1B2" rx="11" ry="11" style="stroke: #A80036; stroke-width: 1.0;"/><path d="M34.6875,246 Q32.75,246 31.625,244.5703 Q30.5,243.1406 30.5,240.1875 Q30.5,237.6875 31.6875,236 Q32.875,234.3125 34.9375,234.3125 Q35.3906,234.3125 35.8281,234.3125 Q36.2656,234.3125 36.5781,234.3125 Q36.8281,234.3125 36.9922,234.3125 Q37.1563,234.3125 37.5625,234.3125 L38.2656,238 L37.2031,238 Q36.7656,236.9063 36.1953,236.4531 Q35.625,236 34.7031,236 Q33.5469,236 32.8672,237.1797 Q32.1875,238.3594 32.1875,240.1875 Q32.1875,242.2031 32.7109,243.2578 Q33.2344,244.3125 34.6406,244.3125 Q35.5625,244.3125 36.2109,243.7422 Q36.8594,243.1719 37.2031,241.7813 L38.2344,242.2969 Q37.8438,244.0469 36.9063,245.0234 Q35.9688,246 34.6875,246 Z "/><text fill="#000000" font-family="sans-serif" font-size="12" lengthAdjust="spacingAndGlyphs" textLength="74" x="49" y="245.5576">PoolImplUtils</text><line style="stroke: #A80036; stroke-width: 1.5;" x1="21" x2="125" y1="256" y2="256"/><line style="stroke: #A80036; stroke-width: 1.5;" x1="21" x2="125" y1="264" y2="264"/><!--class SecurityManagerCallStack--><rect fill="#FEFECE" filter="url(#f11ca77c9ls6ho)" height="48" id="SecurityManagerCallStack" style="stroke: #A80036; stroke-width: 1.5;" width="175" x="3655.5" y="116"/><ellipse cx="3670.5" cy="132" fill="#ADD1B2" rx="11" ry="11" style="stroke: #A80036; stroke-width: 1.0;"/><path d="M3670.1875,138 Q3668.25,138 3667.125,136.5703 Q3666,135.1406 3666,132.1875 Q3666,129.6875 3667.1875,128 Q3668.375,126.3125 3670.4375,126.3125 Q3670.8906,126.3125 3671.3281,126.3125 Q3671.7656,126.3125 3672.0781,126.3125 Q3672.3281,126.3125 3672.4922,126.3125 Q3672.6563,126.3125 3673.0625,126.3125 L3673.7656,130 L3672.7031,130 Q3672.2656,128.9063 3671.6953,128.4531 Q3671.125,128 3670.2031,128 Q3669.0469,128 3668.3672,129.1797 Q3667.6875,130.3594 3667.6875,132.1875 Q3667.6875,134.2031 3668.2109,135.2578 Q3668.7344,136.3125 3670.1406,136.3125 Q3671.0625,136.3125 3671.7109,135.7422 Q3672.3594,135.1719 3672.7031,133.7813 L3673.7344,134.2969 Q3673.3438,136.0469 3672.4063,137.0234 Q3671.4688,138 3670.1875,138 Z "/><text fill="#000000" font-family="sans-serif" font-size="12" lengthAdjust="spacingAndGlyphs" textLength="143" x="3684.5" y="137.5576">SecurityManagerCallStack</text><line style="stroke: #A80036; stroke-width: 1.5;" x1="3656.5" x2="3829.5" y1="148" y2="148"/><line style="stroke: #A80036; stroke-width: 1.5;" x1="3656.5" x2="3829.5" y1="156" y2="156"/><!--class SoftReferenceObjectPool--><rect fill="#FEFECE" filter="url(#f11ca77c9ls6ho)" height="48" id="SoftReferenceObjectPool" style="stroke: #A80036; stroke-width: 1.5;" width="181" x="688.5" y="224"/><ellipse cx="703.5" cy="240" fill="#ADD1B2" rx="11" ry="11" style="stroke: #A80036; stroke-width: 1.0;"/><path d="M703.1875,246 Q701.25,246 700.125,244.5703 Q699,243.1406 699,240.1875 Q699,237.6875 700.1875,236 Q701.375,234.3125 703.4375,234.3125 Q703.8906,234.3125 704.3281,234.3125 Q704.7656,234.3125 705.0781,234.3125 Q705.3281,234.3125 705.4922,234.3125 Q705.6563,234.3125 706.0625,234.3125 L706.7656,238 L705.7031,238 Q705.2656,236.9063 704.6953,236.4531 Q704.125,236 703.2031,236 Q702.0469,236 701.3672,237.1797 Q700.6875,238.3594 700.6875,240.1875 Q700.6875,242.2031 701.2109,243.2578 Q701.7344,244.3125 703.1406,244.3125 Q704.0625,244.3125 704.7109,243.7422 Q705.3594,243.1719 705.7031,241.7813 L706.7344,242.2969 Q706.3438,244.0469 705.4063,245.0234 Q704.4688,246 703.1875,246 Z "/><text fill="#000000" font-family="sans-serif" font-size="12" lengthAdjust="spacingAndGlyphs" textLength="138" x="717.5" y="245.5576">SoftReferenceObjectPool</text><rect fill="#FFFFFF" height="18.3887" style="stroke: #000000; stroke-width: 1.0; stroke-dasharray: 2.0,2.0;" width="9" x="863.5" y="221"/><text fill="#000000" font-family="sans-serif" font-size="12" font-style="italic" lengthAdjust="spacingAndGlyphs" textLength="7" x="864.5" y="235.752">T</text><line style="stroke: #A80036; stroke-width: 1.5;" x1="689.5" x2="868.5" y1="256" y2="256"/><line style="stroke: #A80036; stroke-width: 1.5;" x1="689.5" x2="868.5" y1="264" y2="264"/><!--class ThrowableCallStack--><rect fill="#FEFECE" filter="url(#f11ca77c9ls6ho)" height="48" id="ThrowableCallStack" style="stroke: #A80036; stroke-width: 1.5;" width="142" x="3866" y="116"/><ellipse cx="3881" cy="132" fill="#ADD1B2" rx="11" ry="11" style="stroke: #A80036; stroke-width: 1.0;"/><path d="M3880.6875,138 Q3878.75,138 3877.625,136.5703 Q3876.5,135.1406 3876.5,132.1875 Q3876.5,129.6875 3877.6875,128 Q3878.875,126.3125 3880.9375,126.3125 Q3881.3906,126.3125 3881.8281,126.3125 Q3882.2656,126.3125 3882.5781,126.3125 Q3882.8281,126.3125 3882.9922,126.3125 Q3883.1563,126.3125 3883.5625,126.3125 L3884.2656,130 L3883.2031,130 Q3882.7656,128.9063 3882.1953,128.4531 Q3881.625,128 3880.7031,128 Q3879.5469,128 3878.8672,129.1797 Q3878.1875,130.3594 3878.1875,132.1875 Q3878.1875,134.2031 3878.7109,135.2578 Q3879.2344,136.3125 3880.6406,136.3125 Q3881.5625,136.3125 3882.2109,135.7422 Q3882.8594,135.1719 3883.2031,133.7813 L3884.2344,134.2969 Q3883.8438,136.0469 3882.9063,137.0234 Q3881.9688,138 3880.6875,138 Z "/><text fill="#000000" font-family="sans-serif" font-size="12" lengthAdjust="spacingAndGlyphs" textLength="110" x="3895" y="137.5576">ThrowableCallStack</text><line style="stroke: #A80036; stroke-width: 1.5;" x1="3867" x2="4007" y1="148" y2="148"/><line style="stroke: #A80036; stroke-width: 1.5;" x1="3867" x2="4007" y1="156" y2="156"/><!--link BaseObject to BaseKeyedPooledObjectFactory--><path d="M806.803,57.064 C757.475,74.729 690.877,98.578 642.255,115.99 " fill="none" id="BaseObject-BaseKeyedPooledObjectFactory" style="stroke: #A80036; stroke-width: 1.0;"/><polygon fill="none" points="804.595,50.419,825.784,50.267,809.315,63.6,804.595,50.419" style="stroke: #A80036; stroke-width: 1.0;"/><!--link KeyedPooledObjectFactory to BaseKeyedPooledObjectFactory--><path d="M578,76.024 C578,89.579 578,104.038 578,115.678 " fill="none" id="KeyedPooledObjectFactory-BaseKeyedPooledObjectFactory" style="stroke: #A80036; stroke-width: 1.0; stroke-dasharray: 7.0,7.0;"/><polygon fill="none" points="571,76,578,56,585,76,571,76" style="stroke: #A80036; stroke-width: 1.0;"/><!--link BaseObject to BaseObjectPool--><path d="M839.74,71.227 C826.413,86.097 811.576,102.652 799.901,115.678 " fill="none" id="BaseObject-BaseObjectPool" style="stroke: #A80036; stroke-width: 1.0;"/><polygon fill="none" points="834.825,66.222,853.386,56,845.251,75.566,834.825,66.222" style="stroke: #A80036; stroke-width: 1.0;"/><!--link ObjectPool to BaseObjectPool--><path d="M940.617,64.516 C904.857,80.996 861.859,100.813 829.206,115.862 " fill="none" id="ObjectPool-BaseObjectPool" style="stroke: #A80036; stroke-width: 1.0; stroke-dasharray: 7.0,7.0;"/><polygon fill="none" points="938,58.014,959.093,56,943.86,70.729,938,58.014" style="stroke: #A80036; stroke-width: 1.0;"/><!--link BaseObject to BasePooledObjectFactory--><path d="M941.964,55.651 C1470.48,157.375 1621.24,45.731 2148,116 C2153.64,116.753 2159.43,117.652 2165.25,118.653 " fill="none" id="BaseObject-BasePooledObjectFactory" style="stroke: #A80036; stroke-width: 1.0;"/><polygon fill="none" points="940.478,62.493,922.195,51.781,943.167,48.753,940.478,62.493" style="stroke: #A80036; stroke-width: 1.0;"/><!--link PooledObjectFactory to BasePooledObjectFactory--><path d="M2253,76.024 C2253,89.579 2253,104.038 2253,115.678 " fill="none" id="PooledObjectFactory-BasePooledObjectFactory" style="stroke: #A80036; stroke-width: 1.0; stroke-dasharray: 7.0,7.0;"/><polygon fill="none" points="2246,76,2253,56,2260,76,2246,76" style="stroke: #A80036; stroke-width: 1.0;"/><!--link Comparable to PooledObject--><path d="M2764,76.024 C2764,89.579 2764,104.038 2764,115.678 " fill="none" id="Comparable-PooledObject" style="stroke: #A80036; stroke-width: 1.0;"/><polygon fill="none" points="2757,76,2764,56,2771,76,2757,76" style="stroke: #A80036; stroke-width: 1.0;"/><!--link BaseProxyHandler to CglibProxyHandler--><path d="M3053.69,72.178 C3042.38,86.8 3029.9,102.929 3020.04,115.678 " fill="none" id="BaseProxyHandler-CglibProxyHandler" style="stroke: #A80036; stroke-width: 1.0;"/><polygon fill="none" points="3048.43,67.536,3066.21,56,3059.51,76.103,3048.43,67.536" style="stroke: #A80036; stroke-width: 1.0;"/><!--link MethodInterceptor to CglibProxyHandler--><path d="M2947.4,71.702 C2959.36,86.448 2972.62,102.791 2983.08,115.678 " fill="none" id="MethodInterceptor-CglibProxyHandler" style="stroke: #A80036; stroke-width: 1.0; stroke-dasharray: 7.0,7.0;"/><polygon fill="none" points="2941.83,75.942,2934.66,56,2952.7,67.121,2941.83,75.942" style="stroke: #A80036; stroke-width: 1.0;"/><!--link ProxySource to CglibProxySource--><path d="M3402.48,76.024 C3399.79,89.579 3396.93,104.038 3394.62,115.678 " fill="none" id="ProxySource-CglibProxySource" style="stroke: #A80036; stroke-width: 1.0; stroke-dasharray: 7.0,7.0;"/><polygon fill="none" points="3395.69,74.259,3406.44,56,3409.42,76.98,3395.69,74.259" style="stroke: #A80036; stroke-width: 1.0;"/><!--link BaseProxyHandler to JdkProxyHandler--><path d="M3125.89,69.104 C3143.76,84.503 3164.1,102.029 3179.94,115.678 " fill="none" id="BaseProxyHandler-JdkProxyHandler" style="stroke: #A80036; stroke-width: 1.0;"/><polygon fill="none" points="3121.27,74.359,3110.69,56,3130.41,63.754,3121.27,74.359" style="stroke: #A80036; stroke-width: 1.0;"/><!--link InvocationHandler to JdkProxyHandler--><path d="M3234.96,74.575 C3228.9,88.543 3222.35,103.622 3217.12,115.678 " fill="none" id="InvocationHandler-JdkProxyHandler" style="stroke: #A80036; stroke-width: 1.0; stroke-dasharray: 7.0,7.0;"/><polygon fill="none" points="3228.64,71.561,3243.02,56,3241.48,77.134,3228.64,71.561" style="stroke: #A80036; stroke-width: 1.0;"/><!--link ProxySource to JdkProxySource--><path d="M3458.46,67.935 C3479.76,83.611 3504.3,101.682 3523.32,115.678 " fill="none" id="ProxySource-JdkProxySource" style="stroke: #A80036; stroke-width: 1.0; stroke-dasharray: 7.0,7.0;"/><polygon fill="none" points="3454.2,73.494,3442.25,56,3462.5,62.219,3454.2,73.494" style="stroke: #A80036; stroke-width: 1.0;"/><!--link KeyedObjectPool to ProxiedKeyedObjectPool--><path d="M1833.98,176.869 C1852.49,192.325 1873.62,209.959 1890.06,223.678 " fill="none" id="KeyedObjectPool-ProxiedKeyedObjectPool" style="stroke: #A80036; stroke-width: 1.0; stroke-dasharray: 7.0,7.0;"/><polygon fill="none" points="1829.43,182.19,1818.56,164,1838.4,171.442,1829.43,182.19" style="stroke: #A80036; stroke-width: 1.0;"/><!--link ObjectPool to ProxiedObjectPool--><path d="M985.245,73.613 C976.919,87.848 967.855,103.345 960.641,115.678 " fill="none" id="ObjectPool-ProxiedObjectPool" style="stroke: #A80036; stroke-width: 1.0; stroke-dasharray: 7.0,7.0;"/><polygon fill="none" points="979.407,69.73,995.547,56,991.492,76.798,979.407,69.73" style="stroke: #A80036; stroke-width: 1.0;"/><!--link BaseObject to BaseGenericObjectPool--><path d="M942.096,55.938 C1181.53,108.824 1251.55,77.674 1487,116 C1492.95,116.968 1499.06,118.054 1505.22,119.212 " fill="none" id="BaseObject-BaseGenericObjectPool" style="stroke: #A80036; stroke-width: 1.0;"/><polygon fill="none" points="940.228,62.693,922.265,51.454,943.316,49.037,940.228,62.693" style="stroke: #A80036; stroke-width: 1.0;"/><!--link BaseObject to BaseObjectPoolConfig--><path d="M942.083,55.641 C1562.44,172.878 1739.4,29.642 2358,116 C2363.69,116.794 2369.53,117.774 2375.39,118.877 " fill="none" id="BaseObject-BaseObjectPoolConfig" style="stroke: #A80036; stroke-width: 1.0;"/><polygon fill="none" points="940.508,62.467,922.187,51.821,943.148,48.718,940.508,62.467" style="stroke: #A80036; stroke-width: 1.0;"/><!--link Cloneable to BaseObjectPoolConfig--><path d="M2454,76.024 C2454,89.579 2454,104.038 2454,115.678 " fill="none" id="Cloneable-BaseObjectPoolConfig" style="stroke: #A80036; stroke-width: 1.0; stroke-dasharray: 7.0,7.0;"/><polygon fill="none" points="2447,76,2454,56,2461,76,2447,76" style="stroke: #A80036; stroke-width: 1.0;"/><!--link EvictionPolicy to DefaultEvictionPolicy--><path d="M4121,76.024 C4121,89.579 4121,104.038 4121,115.678 " fill="none" id="EvictionPolicy-DefaultEvictionPolicy" style="stroke: #A80036; stroke-width: 1.0; stroke-dasharray: 7.0,7.0;"/><polygon fill="none" points="4114,76,4121,56,4128,76,4114,76" style="stroke: #A80036; stroke-width: 1.0;"/><!--link PooledObject to DefaultPooledObject--><path d="M2764,184.024 C2764,197.579 2764,212.038 2764,223.678 " fill="none" id="PooledObject-DefaultPooledObject" style="stroke: #A80036; stroke-width: 1.0; stroke-dasharray: 7.0,7.0;"/><polygon fill="none" points="2757,184,2764,164,2771,184,2757,184" style="stroke: #A80036; stroke-width: 1.0;"/><!--link DefaultPooledObjectInfoMBean to DefaultPooledObjectInfo--><path d="M4318,76.024 C4318,89.579 4318,104.038 4318,115.678 " fill="none" id="DefaultPooledObjectInfoMBean-DefaultPooledObjectInfo" style="stroke: #A80036; stroke-width: 1.0; stroke-dasharray: 7.0,7.0;"/><polygon fill="none" points="4311,76,4318,56,4325,76,4311,76" style="stroke: #A80036; stroke-width: 1.0;"/><!--link BaseGenericObjectPool to GenericKeyedObjectPool--><path d="M1628.26,178.753 C1642.26,193.744 1657.92,210.514 1670.22,223.678 " fill="none" id="BaseGenericObjectPool-GenericKeyedObjectPool" style="stroke: #A80036; stroke-width: 1.0;"/><polygon fill="none" points="1623.02,183.395,1614.48,164,1633.25,173.839,1623.02,183.395" style="stroke: #A80036; stroke-width: 1.0;"/><!--link KeyedObjectPool to GenericKeyedObjectPool--><path d="M1755.74,178.753 C1741.74,193.744 1726.08,210.514 1713.78,223.678 " fill="none" id="KeyedObjectPool-GenericKeyedObjectPool" style="stroke: #A80036; stroke-width: 1.0; stroke-dasharray: 7.0,7.0;"/><polygon fill="none" points="1750.75,173.839,1769.52,164,1760.98,183.395,1750.75,173.839" style="stroke: #A80036; stroke-width: 1.0;"/><!--link GenericKeyedObjectPoolMXBean to GenericKeyedObjectPool--><path d="M1926.53,170.271 C1874.78,187.202 1810.58,208.204 1762.45,223.953 " fill="none" id="GenericKeyedObjectPoolMXBean-GenericKeyedObjectPool" style="stroke: #A80036; stroke-width: 1.0; stroke-dasharray: 7.0,7.0;"/><polygon fill="none" points="1924.51,163.566,1945.7,164,1928.86,176.872,1924.51,163.566" style="stroke: #A80036; stroke-width: 1.0;"/><!--link BaseObjectPoolConfig to GenericKeyedObjectPoolConfig--><path d="M2415.11,177.809 C2399.02,193.036 2380.84,210.237 2366.64,223.678 " fill="none" id="BaseObjectPoolConfig-GenericKeyedObjectPoolConfig" style="stroke: #A80036; stroke-width: 1.0;"/><polygon fill="none" points="2410.36,172.664,2429.7,164,2419.98,182.832,2410.36,172.664" style="stroke: #A80036; stroke-width: 1.0;"/><!--link BaseGenericObjectPool to GenericObjectPool--><path d="M1507.02,170.495 C1457.78,187.387 1396.89,208.274 1351.18,223.953 " fill="none" id="BaseGenericObjectPool-GenericObjectPool" style="stroke: #A80036; stroke-width: 1.0;"/><polygon fill="none" points="1504.76,163.869,1525.95,164,1509.31,177.111,1504.76,163.869" style="stroke: #A80036; stroke-width: 1.0;"/><!--link ObjectPool to GenericObjectPool--><path d="M1032.32,73.562 C1050.16,101.797 1076.93,138.762 1108,164 C1139.99,189.985 1181.46,210.053 1216.11,223.943 " fill="none" id="ObjectPool-GenericObjectPool" style="stroke: #A80036; stroke-width: 1.0; stroke-dasharray: 7.0,7.0;"/><polygon fill="none" points="1026.09,76.799,1021.69,56.072,1038.06,69.529,1026.09,76.799" style="stroke: #A80036; stroke-width: 1.0;"/><!--link GenericObjectPoolMXBean to GenericObjectPool--><path d="M1344.74,179.227 C1331.41,194.097 1316.58,210.652 1304.9,223.678 " fill="none" id="GenericObjectPoolMXBean-GenericObjectPool" style="stroke: #A80036; stroke-width: 1.0; stroke-dasharray: 7.0,7.0;"/><polygon fill="none" points="1339.83,174.222,1358.39,164,1350.25,183.566,1339.83,174.222" style="stroke: #A80036; stroke-width: 1.0;"/><!--link UsageTracking to GenericObjectPool--><path d="M1223.26,179.227 C1236.59,194.097 1251.42,210.652 1263.1,223.678 " fill="none" id="UsageTracking-GenericObjectPool" style="stroke: #A80036; stroke-width: 1.0; stroke-dasharray: 7.0,7.0;"/><polygon fill="none" points="1217.75,183.566,1209.61,164,1228.17,174.222,1217.75,183.566" style="stroke: #A80036; stroke-width: 1.0;"/><!--link BaseObjectPoolConfig to GenericObjectPoolConfig--><path d="M2493.04,178.28 C2508.86,193.391 2526.65,210.375 2540.58,223.678 " fill="none" id="BaseObjectPoolConfig-GenericObjectPoolConfig" style="stroke: #A80036; stroke-width: 1.0;"/><polygon fill="none" points="2487.72,182.876,2478.09,164,2497.38,172.751,2487.72,182.876" style="stroke: #A80036; stroke-width: 1.0;"/><!--link ReentrantLock to InterruptibleReentrantLock--><path d="M4524,76.024 C4524,89.579 4524,104.038 4524,115.678 " fill="none" id="ReentrantLock-InterruptibleReentrantLock" style="stroke: #A80036; stroke-width: 1.0;"/><polygon fill="none" points="4517,76,4524,56,4531,76,4517,76" style="stroke: #A80036; stroke-width: 1.0;"/><!--link AbstractQueue to LinkedBlockingDeque--><path d="M4714.92,69.104 C4733.22,84.503 4754.05,102.029 4770.28,115.678 " fill="none" id="AbstractQueue-LinkedBlockingDeque" style="stroke: #A80036; stroke-width: 1.0;"/><polygon fill="none" points="4710.14,74.232,4699.34,56,4719.15,63.519,4710.14,74.232" style="stroke: #A80036; stroke-width: 1.0;"/><!--link Deque to LinkedBlockingDeque--><path d="M4798,76.024 C4798,89.579 4798,104.038 4798,115.678 " fill="none" id="Deque-LinkedBlockingDeque" style="stroke: #A80036; stroke-width: 1.0; stroke-dasharray: 7.0,7.0;"/><polygon fill="none" points="4791,76,4798,56,4805,76,4791,76" style="stroke: #A80036; stroke-width: 1.0;"/><!--link Serializable to LinkedBlockingDeque--><path d="M4876.21,69.338 C4858.98,84.681 4839.43,102.098 4824.18,115.678 " fill="none" id="Serializable-LinkedBlockingDeque" style="stroke: #A80036; stroke-width: 1.0; stroke-dasharray: 7.0,7.0;"/><polygon fill="none" points="4871.59,64.076,4891.18,56,4880.9,74.53,4871.59,64.076" style="stroke: #A80036; stroke-width: 1.0;"/><!--link DefaultPooledObject to PooledSoftReference--><path d="M2764,292.0236 C2764,305.5792 2764,320.0381 2764,331.6784 " fill="none" id="DefaultPooledObject-PooledSoftReference" style="stroke: #A80036; stroke-width: 1.0;"/><polygon fill="none" points="2757,292.0005,2764,272,2771,292.0004,2757,292.0005" style="stroke: #A80036; stroke-width: 1.0;"/><!--link CallStack to SecurityManagerCallStack--><path d="M3805.02,71.227 C3791.41,86.097 3776.26,102.652 3764.34,115.678 " fill="none" id="CallStack-SecurityManagerCallStack" style="stroke: #A80036; stroke-width: 1.0; stroke-dasharray: 7.0,7.0;"/><polygon fill="none" points="3800.29,66.029,3818.95,56,3810.61,75.481,3800.29,66.029" style="stroke: #A80036; stroke-width: 1.0;"/><!--link BaseObjectPool to SoftReferenceObjectPool--><path d="M779,184.024 C779,197.579 779,212.038 779,223.678 " fill="none" id="BaseObjectPool-SoftReferenceObjectPool" style="stroke: #A80036; stroke-width: 1.0;"/><polygon fill="none" points="772,184,779,164,786,184,772,184" style="stroke: #A80036; stroke-width: 1.0;"/><!--link CallStack to ThrowableCallStack--><path d="M3874.98,71.227 C3888.59,86.097 3903.74,102.652 3915.66,115.678 " fill="none" id="CallStack-ThrowableCallStack" style="stroke: #A80036; stroke-width: 1.0; stroke-dasharray: 7.0,7.0;"/><polygon fill="none" points="3869.39,75.481,3861.05,56,3879.71,66.029,3869.39,75.481" style="stroke: #A80036; stroke-width: 1.0;"/><!--link PooledObjectState to TrackedUse--><!--link TrackedUse to AbandonedConfig--><!--link PooledObjectState to CallStackUtils--><!--link CallStackUtils to EvictionConfig--><!--link EvictionConfig to EvictionTimer--><!--link CallStackUtils to PoolImplUtils--><!--
@startuml

abstract class BaseKeyedPooledObjectFactory extends BaseObject implements KeyedPooledObjectFactory

abstract class BaseObject

abstract class BaseObjectPool extends BaseObject implements ObjectPool

abstract class BasePooledObjectFactory extends BaseObject implements PooledObjectFactory

interface KeyedObjectPool<K,V>

interface KeyedPooledObjectFactory<K,V>

interface ObjectPool<T>

interface PooledObject extends Comparable

interface PooledObjectFactory<T>

enum PooledObjectState

interface TrackedUse

interface UsageTracking<T>


class BaseProxyHandler

class CglibProxyHandler extends BaseProxyHandler implements MethodInterceptor

class CglibProxySource implements ProxySource

class JdkProxyHandler extends BaseProxyHandler implements InvocationHandler

class JdkProxySource<T> implements ProxySource

class ProxiedKeyedObjectPool<K,V> implements KeyedObjectPool

class ProxiedObjectPool<T> implements ObjectPool

interface ProxySource<T>



class AbandonedConfig

abstract class BaseGenericObjectPool<T> extends BaseObject

abstract class BaseObjectPoolConfig extends BaseObject implements Cloneable

interface CallStack

class CallStackUtils

class DefaultEvictionPolicy<T> implements EvictionPolicy

class DefaultPooledObject<T> implements PooledObject

class DefaultPooledObjectInfo implements DefaultPooledObjectInfoMBean

interface DefaultPooledObjectInfoMBean

class EvictionConfig

interface EvictionPolicy<T>

class EvictionTimer

class GenericKeyedObjectPool<K,T> extends BaseGenericObjectPool implements KeyedObjectPool, GenericKeyedObjectPoolMXBean

class GenericKeyedObjectPoolConfig extends BaseObjectPoolConfig

interface GenericKeyedObjectPoolMXBean<K>

class GenericObjectPool<T> extends BaseGenericObjectPool implements ObjectPool, GenericObjectPoolMXBean, UsageTracking

class GenericObjectPoolConfig extends BaseObjectPoolConfig

interface GenericObjectPoolMXBean

class InterruptibleReentrantLock extends ReentrantLock

class LinkedBlockingDeque<E> extends AbstractQueue implements Deque, Serializable

class PooledSoftReference<T> extends DefaultPooledObject

class PoolImplUtils

class SecurityManagerCallStack implements CallStack

class SoftReferenceObjectPool<T> extends BaseObjectPool

class ThrowableCallStack implements CallStack


@enduml

PlantUML version 1.2017.15(Tue Jul 04 00:45:34 CST 2017)
(GPL source distribution)
Java Runtime: OpenJDK Runtime Environment
JVM: OpenJDK 64-Bit Server VM
Java Version: 1.8.0_152-release-915-b11
Operating System: Windows 10
OS Version: 10.0
Default Encoding: GBK
Language: zh
Country: CN
--></g></svg>